<?xml version="1.0" encoding="UTF-8"?>
<!DOCTYPE svg PUBLIC "-//W3C//DTD SVG 1.1//EN" "http://www.w3.org/Graphics/SVG/1.1/DTD/svg11.dtd">
<svg xmlns="http://www.w3.org/2000/svg" version="1.1" width="5000px" height="5000px" style="shape-rendering:geometricPrecision; text-rendering:geometricPrecision; image-rendering:optimizeQuality; fill-rule:evenodd; clip-rule:evenodd" xmlns:xlink="http://www.w3.org/1999/xlink">
<g><path style="opacity:0.99" fill="#ff671b" d="M 2759.5,1492.5 C 2775.73,1519.94 2792.23,1547.28 2809,1574.5C 2810.01,1576.02 2810.51,1577.69 2810.5,1579.5C 2798.33,1579.22 2786.17,1578.89 2774,1578.5C 2763.63,1578.41 2753.46,1579.08 2743.5,1580.5C 2682.17,1581.39 2621.83,1589.05 2562.5,1603.5C 2497.41,1618.21 2435.08,1640.55 2375.5,1670.5C 2376.71,1669.37 2377.71,1668.04 2378.5,1666.5C 2357.27,1630.37 2335.77,1594.37 2314,1558.5C 2302.54,1564.57 2291.2,1570.9 2280,1577.5C 2276.83,1578.53 2273.66,1580.36 2270.5,1583C 2267.47,1584.28 2264.47,1585.45 2261.5,1586.5C 2264.93,1583.61 2268.6,1580.94 2272.5,1578.5C 2424.3,1492.22 2586.63,1463.55 2759.5,1492.5 Z"/></g>
<g><path style="opacity:0.983" fill="#ff6219" d="M 2759.5,1492.5 C 2862.26,1510.77 2956.26,1549.44 3041.5,1608.5C 3041.26,1609.1 3040.76,1609.43 3040,1609.5C 3029.63,1606.8 3019.13,1604.8 3008.5,1603.5C 2921.18,1586.32 2832.84,1578.65 2743.5,1580.5C 2753.46,1579.08 2763.63,1578.41 2774,1578.5C 2786.17,1578.89 2798.33,1579.22 2810.5,1579.5C 2810.51,1577.69 2810.01,1576.02 2809,1574.5C 2792.23,1547.28 2775.73,1519.94 2759.5,1492.5 Z"/></g>
<g><path style="opacity:0.986" fill="#ff6e1d" d="M 2375.5,1670.5 C 2366.55,1673.8 2357.89,1677.97 2349.5,1683C 2316.49,1702.34 2284.82,1723.68 2254.5,1747C 2247.57,1752.62 2240.91,1758.45 2234.5,1764.5C 2229.05,1768.41 2223.71,1772.57 2218.5,1777C 2215.3,1780.04 2212.3,1783.2 2209.5,1786.5C 2170.45,1820.7 2136.29,1859.03 2107,1901.5C 2106.18,1902.82 2105.02,1903.49 2103.5,1903.5C 2086.05,1887.34 2065.38,1877.67 2041.5,1874.5C 1964.84,1873.5 1888.17,1873.17 1811.5,1873.5C 1838.99,1872.5 1866.66,1872.17 1894.5,1872.5C 1936.17,1872.19 1977.83,1871.69 2019.5,1871C 1976.11,1799.72 1933.11,1728.22 1890.5,1656.5C 1848.84,1655.5 1807.17,1655.17 1765.5,1655.5C 1764.5,1655.5 1763.5,1655.5 1762.5,1655.5C 1885.51,1653.98 2008.85,1652.81 2132.5,1652C 2150.78,1648.89 2168.28,1643.39 2185,1635.5C 2193.92,1630.29 2202.76,1624.96 2211.5,1619.5C 2223.31,1610.66 2235.31,1601.99 2247.5,1593.5C 2252.3,1591.29 2256.97,1588.96 2261.5,1586.5C 2264.47,1585.45 2267.47,1584.28 2270.5,1583C 2273.66,1580.36 2276.83,1578.53 2280,1577.5C 2291.2,1570.9 2302.54,1564.57 2314,1558.5C 2335.77,1594.37 2357.27,1630.37 2378.5,1666.5C 2377.71,1668.04 2376.71,1669.37 2375.5,1670.5 Z"/></g>
<g><path style="opacity:1" fill="#ff5a15" d="M 2743.5,1580.5 C 2832.84,1578.65 2921.18,1586.32 3008.5,1603.5C 2993.24,1601.75 2978.08,1599.42 2963,1596.5C 2959.2,1596.41 2958.53,1597.75 2961,1600.5C 3066.92,1776.67 3172.58,1953 3278,2129.5C 3279.12,2131.77 3279.95,2134.1 3280.5,2136.5C 3279.77,2139.18 3278.94,2141.85 3278,2144.5C 3271.65,2155.2 3266.65,2166.53 3263,2178.5C 3262.05,2180.46 3260.71,2182.12 3259,2183.5C 3237.36,2229.92 3212.36,2274.25 3184,2316.5C 3183.64,2318.61 3182.97,2320.61 3182,2322.5C 3163.4,2348.27 3144.23,2373.6 3124.5,2398.5C 3118.37,2404.75 3112.7,2411.42 3107.5,2418.5C 3093.2,2433.64 3079.03,2448.97 3065,2464.5C 3058.24,2471.76 3051.08,2478.43 3043.5,2484.5C 3049.96,2477.54 3056.63,2470.7 3063.5,2464C 3050.77,2444.71 3038.94,2424.88 3028,2404.5C 3026,2401.83 3024,2399.17 3022,2396.5C 2977.4,2320.91 2932.4,2245.57 2887,2170.5C 2885.6,2162.92 2885.1,2155.25 2885.5,2147.5C 2885.5,2139.83 2885.5,2132.17 2885.5,2124.5C 2887.29,2109.37 2888.29,2094.03 2888.5,2078.5C 2888.4,2068.15 2888.73,2057.81 2889.5,2047.5C 2889.55,2037.49 2889.89,2027.49 2890.5,2017.5C 2891.86,2006.03 2892.53,1994.36 2892.5,1982.5C 2892.78,1974.16 2893.12,1965.83 2893.5,1957.5C 2894.83,1952.71 2895.49,1947.55 2895.5,1942C 2895.98,1930.17 2896.32,1918.34 2896.5,1906.5C 2897.04,1897.51 2897.37,1888.51 2897.5,1879.5C 2898,1870.17 2898.33,1860.84 2898.5,1851.5C 2899.77,1825.51 2900.6,1799.51 2901,1773.5C 2900.37,1761.66 2896.2,1751.33 2888.5,1742.5C 2888.57,1740.97 2887.91,1739.97 2886.5,1739.5C 2880.98,1733.06 2874.32,1728.06 2866.5,1724.5C 2864.38,1722.35 2861.72,1721.35 2858.5,1721.5C 2848.72,1718.61 2838.72,1717.94 2828.5,1719.5C 2825.78,1719.68 2823.12,1720.18 2820.5,1721C 2818.68,1721.2 2817.35,1722.03 2816.5,1723.5C 2802.05,1728.95 2791.38,1738.62 2784.5,1752.5C 2781.32,1756.5 2779.65,1761.17 2779.5,1766.5C 2778.45,1784.46 2778.45,1802.46 2779.5,1820.5C 2780.13,1837.17 2780.8,1853.83 2781.5,1870.5C 2781.61,1880.51 2781.94,1890.51 2782.5,1900.5C 2782.69,1913 2783.02,1925.5 2783.5,1938C 2783.5,1943.88 2784.17,1949.38 2785.5,1954.5C 2785.83,1962.5 2786.17,1970.5 2786.5,1978.5C 2786.5,1983.83 2786.5,1989.17 2786.5,1994.5C 2786.66,1996.53 2786.5,1998.53 2786,2000.5C 2708.52,1870.2 2630.52,1740.2 2552,1610.5C 2551.51,1609.21 2551.34,1607.87 2551.5,1606.5C 2555.53,1606.48 2559.2,1605.48 2562.5,1603.5C 2621.83,1589.05 2682.17,1581.39 2743.5,1580.5 Z"/></g>
<g><path style="opacity:0.988" fill="#fe5613" d="M 3008.5,1603.5 C 3019.13,1604.8 3029.63,1606.8 3040,1609.5C 3040.76,1609.43 3041.26,1609.1 3041.5,1608.5C 3167.42,1697.01 3256.92,1814.01 3310,1959.5C 3315.33,1976.47 3320.49,1993.47 3325.5,2010.5C 3323.9,2011.74 3322.74,2013.4 3322,2015.5C 3311.31,2056.98 3297.47,2097.32 3280.5,2136.5C 3279.95,2134.1 3279.12,2131.77 3278,2129.5C 3172.58,1953 3066.92,1776.67 2961,1600.5C 2958.53,1597.75 2959.2,1596.41 2963,1596.5C 2978.08,1599.42 2993.24,1601.75 3008.5,1603.5 Z"/></g>
<g><path style="opacity:1" fill="#ff6017" d="M 2562.5,1603.5 C 2559.2,1605.48 2555.53,1606.48 2551.5,1606.5C 2551.34,1607.87 2551.51,1609.21 2552,1610.5C 2630.52,1740.2 2708.52,1870.2 2786,2000.5C 2786.5,1998.53 2786.66,1996.53 2786.5,1994.5C 2787.17,1998.83 2787.83,2003.17 2788.5,2007.5C 2788.44,2020.18 2788.77,2032.85 2789.5,2045.5C 2790.28,2056.15 2790.61,2066.81 2790.5,2077.5C 2790.97,2092.84 2791.63,2108.18 2792.5,2123.5C 2793.63,2145.17 2793.63,2166.84 2792.5,2188.5C 2791.68,2191.76 2791.34,2195.1 2791.5,2198.5C 2790.13,2201.96 2789.13,2205.63 2788.5,2209.5C 2787.08,2211.51 2786.41,2213.85 2786.5,2216.5C 2785.39,2218.6 2784.72,2220.93 2784.5,2223.5C 2782.62,2224.9 2781.62,2226.9 2781.5,2229.5C 2775.38,2242.4 2768.22,2254.73 2760,2266.5C 2751.66,2275.67 2743.16,2284.67 2734.5,2293.5C 2732.41,2294.58 2731.08,2296.25 2730.5,2298.5C 2715.37,2314.76 2704.37,2333.42 2697.5,2354.5C 2696.23,2356.91 2695.57,2359.57 2695.5,2362.5C 2694.09,2365.22 2693.42,2368.22 2693.5,2371.5C 2692.88,2371.61 2692.38,2371.94 2692,2372.5C 2691.39,2375.83 2690.89,2379.16 2690.5,2382.5C 2690.5,2383.5 2690.5,2384.5 2690.5,2385.5C 2688.74,2388.7 2687.91,2392.37 2688,2396.5C 2687.5,2441.17 2687.33,2485.83 2687.5,2530.5C 2639.36,2449.56 2591.19,2368.56 2543,2287.5C 2541.69,2285.81 2540.19,2284.47 2538.5,2283.5C 2538.82,2276.98 2538.49,2270.64 2537.5,2264.5C 2537.5,2263.17 2537.5,2261.83 2537.5,2260.5C 2536.91,2244.84 2536.58,2229.17 2536.5,2213.5C 2537.19,2205.39 2538.52,2197.39 2540.5,2189.5C 2541.92,2187.49 2542.59,2185.15 2542.5,2182.5C 2544.32,2174.02 2547.32,2166.02 2551.5,2158.5C 2552.91,2158.03 2553.57,2157.03 2553.5,2155.5C 2558.31,2145.22 2564.14,2135.56 2571,2126.5C 2577.97,2118.19 2585.64,2110.53 2594,2103.5C 2600.33,2096.8 2606.16,2089.8 2611.5,2082.5C 2612.91,2082.03 2613.57,2081.03 2613.5,2079.5C 2613.93,2078.29 2614.6,2077.29 2615.5,2076.5C 2617.41,2075.51 2618.41,2073.85 2618.5,2071.5C 2619.65,2068.71 2620.98,2066.04 2622.5,2063.5C 2623.91,2063.03 2624.57,2062.03 2624.5,2060.5C 2628.38,2051.53 2632.04,2042.53 2635.5,2033.5C 2637.1,2031.15 2638.1,2028.49 2638.5,2025.5C 2639.5,2019.5 2640.5,2013.5 2641.5,2007.5C 2643.48,1999.75 2644.81,1991.75 2645.5,1983.5C 2645.23,1978.74 2645.56,1974.07 2646.5,1969.5C 2647.66,1961.68 2647.82,1953.68 2647,1945.5C 2646.97,1939.24 2646.13,1933.24 2644.5,1927.5C 2644.5,1925.83 2644.5,1924.17 2644.5,1922.5C 2644.06,1916.61 2643.06,1910.94 2641.5,1905.5C 2639.86,1894.3 2637.19,1883.3 2633.5,1872.5C 2632.57,1869.55 2631.74,1866.55 2631,1863.5C 2630.62,1862.94 2630.12,1862.61 2629.5,1862.5C 2629.5,1862.17 2629.5,1861.83 2629.5,1861.5C 2629.07,1858.84 2628.07,1856.51 2626.5,1854.5C 2625.7,1851.42 2624.7,1848.42 2623.5,1845.5C 2623.2,1843.6 2622.54,1841.93 2621.5,1840.5C 2606.83,1806.02 2585.83,1775.86 2558.5,1750C 2546.84,1740.33 2534.17,1732.33 2520.5,1726C 2516.17,1724.67 2511.84,1723.5 2507.5,1722.5C 2507.08,1721.78 2506.42,1721.28 2505.5,1721C 2495.83,1719 2486.17,1719 2476.5,1721C 2474.03,1721.04 2472.03,1721.87 2470.5,1723.5C 2462.41,1724.89 2455.07,1727.89 2448.5,1732.5C 2446.97,1732.43 2445.97,1733.09 2445.5,1734.5C 2436.82,1739.34 2428.82,1745.18 2421.5,1752C 2415.26,1757.74 2409.59,1763.9 2404.5,1770.5C 2402.41,1771.58 2401.08,1773.25 2400.5,1775.5C 2383,1796.16 2369.33,1819.16 2359.5,1844.5C 2357.42,1847.05 2356.08,1850.05 2355.5,1853.5C 2354.77,1854.71 2354.43,1856.04 2354.5,1857.5C 2352.43,1859.98 2351.1,1862.98 2350.5,1866.5C 2349.96,1868.12 2349.63,1869.78 2349.5,1871.5C 2348.88,1871.61 2348.38,1871.94 2348,1872.5C 2346.85,1876.45 2346.01,1880.45 2345.5,1884.5C 2344.68,1886.77 2344.01,1889.11 2343.5,1891.5C 2342.23,1893.91 2341.57,1896.57 2341.5,1899.5C 2338.94,1913.09 2336.94,1926.76 2335.5,1940.5C 2302.29,1884.76 2268.79,1829.1 2235,1773.5C 2234.44,1771.39 2233.61,1769.39 2232.5,1767.5C 2233.19,1766.48 2233.86,1765.48 2234.5,1764.5C 2240.91,1758.45 2247.57,1752.62 2254.5,1747C 2284.82,1723.68 2316.49,1702.34 2349.5,1683C 2357.89,1677.97 2366.55,1673.8 2375.5,1670.5C 2435.08,1640.55 2497.41,1618.21 2562.5,1603.5 Z"/></g>
<g><path style="opacity:0.993" fill="#ff731f" d="M 1762.5,1655.5 C 1763.5,1655.5 1764.5,1655.5 1765.5,1655.5C 1808.25,1727.99 1851.25,1800.33 1894.5,1872.5C 1866.66,1872.17 1838.99,1872.5 1811.5,1873.5C 1792.14,1873.86 1772.8,1873.36 1753.5,1872C 1716.81,1864.28 1689.64,1844.12 1672,1811.5C 1650.99,1759.86 1660.82,1715.36 1701.5,1678C 1719.29,1663.9 1739.62,1656.4 1762.5,1655.5 Z"/></g>
<g><path style="opacity:0.998" fill="#ff711e" d="M 1765.5,1655.5 C 1807.17,1655.17 1848.84,1655.5 1890.5,1656.5C 1933.11,1728.22 1976.11,1799.72 2019.5,1871C 1977.83,1871.69 1936.17,1872.19 1894.5,1872.5C 1851.25,1800.33 1808.25,1727.99 1765.5,1655.5 Z"/></g>
<g><path style="opacity:1" fill="#fffefe" d="M 2858.5,1721.5 C 2860.94,1722.87 2863.6,1723.87 2866.5,1724.5C 2874.32,1728.06 2880.98,1733.06 2886.5,1739.5C 2886.43,1741.03 2887.09,1742.03 2888.5,1742.5C 2896.2,1751.33 2900.37,1761.66 2901,1773.5C 2900.6,1799.51 2899.77,1825.51 2898.5,1851.5C 2896.94,1860.62 2896.28,1869.95 2896.5,1879.5C 2895.89,1888.49 2895.56,1897.49 2895.5,1906.5C 2894.77,1916.82 2894.44,1927.15 2894.5,1937.5C 2893.78,1937.92 2893.28,1938.58 2893,1939.5C 2892.44,1953.83 2891.94,1968.17 2891.5,1982.5C 2891.13,1994.17 2890.8,2005.83 2890.5,2017.5C 2889.89,2027.49 2889.55,2037.49 2889.5,2047.5C 2888.78,2047.92 2888.28,2048.58 2888,2049.5C 2887.33,2064.16 2886.83,2078.83 2886.5,2093.5C 2886.13,2103.83 2885.79,2114.17 2885.5,2124.5C 2885.5,2132.17 2885.5,2139.83 2885.5,2147.5C 2884.21,2161.1 2884.55,2174.76 2886.5,2188.5C 2886.12,2192.49 2886.78,2196.16 2888.5,2199.5C 2888.67,2201.86 2889.01,2204.19 2889.5,2206.5C 2890.05,2209.75 2891.05,2212.75 2892.5,2215.5C 2893.79,2218.64 2894.79,2221.98 2895.5,2225.5C 2896.08,2228.95 2897.42,2231.95 2899.5,2234.5C 2905.48,2246.47 2912.48,2257.8 2920.5,2268.5C 2921.08,2270.75 2922.41,2272.42 2924.5,2273.5C 2940.75,2287.07 2954.41,2302.74 2965.5,2320.5C 2965.43,2322.03 2966.09,2323.03 2967.5,2323.5C 2971.8,2329.1 2974.8,2335.43 2976.5,2342.5C 2976.43,2344.03 2977.09,2345.03 2978.5,2345.5C 2980.5,2352.15 2982.5,2358.82 2984.5,2365.5C 2985.47,2371.37 2986.8,2377.04 2988.5,2382.5C 2989.2,2386.45 2989.7,2390.45 2990,2394.5C 2990.5,2478.17 2990.67,2561.83 2990.5,2645.5C 2987.16,2660.18 2978.16,2669.18 2963.5,2672.5C 2957.05,2672.77 2950.71,2672.1 2944.5,2670.5C 2942.41,2669.96 2940.41,2669.12 2938.5,2668C 2935.03,2664.19 2931.7,2660.35 2928.5,2656.5C 2928.74,2654.1 2928.07,2652.1 2926.5,2650.5C 2926.17,2649.17 2925.83,2647.83 2925.5,2646.5C 2925.67,2583.83 2925.5,2521.17 2925,2458.5C 2924.68,2455.33 2923.51,2452.67 2921.5,2450.5C 2920.09,2446.6 2917.76,2443.43 2914.5,2441C 2912.26,2439.86 2909.92,2439.03 2907.5,2438.5C 2907.39,2437.88 2907.06,2437.38 2906.5,2437C 2901.17,2436.33 2895.83,2436.33 2890.5,2437C 2889.94,2437.38 2889.61,2437.88 2889.5,2438.5C 2886.48,2438.84 2883.82,2440.01 2881.5,2442C 2878.53,2445.13 2876.19,2448.63 2874.5,2452.5C 2873.03,2453.35 2872.2,2454.68 2872,2456.5C 2871.5,2519.83 2871.33,2583.17 2871.5,2646.5C 2870.85,2648.44 2870.52,2650.44 2870.5,2652.5C 2869.66,2653.67 2868.99,2655 2868.5,2656.5C 2867.09,2656.97 2866.43,2657.97 2866.5,2659.5C 2862.42,2664.7 2857.42,2668.7 2851.5,2671.5C 2843.08,2673.02 2834.75,2672.68 2826.5,2670.5C 2824.41,2669.96 2822.41,2669.12 2820.5,2668C 2817.27,2664.94 2814.27,2661.77 2811.5,2658.5C 2811.11,2656.72 2810.44,2655.05 2809.5,2653.5C 2809.04,2650.67 2808.37,2648 2807.5,2645.5C 2806.67,2582.67 2806.17,2519.67 2806,2456.5C 2803.9,2447.25 2798.4,2441.25 2789.5,2438.5C 2789.39,2437.88 2789.06,2437.38 2788.5,2437C 2783.17,2436.33 2777.83,2436.33 2772.5,2437C 2771.94,2437.38 2771.61,2437.88 2771.5,2438.5C 2765.55,2439.75 2761.21,2443.08 2758.5,2448.5C 2756.23,2450.61 2754.9,2453.28 2754.5,2456.5C 2754.67,2519.5 2754.5,2582.5 2754,2645.5C 2751.79,2655.86 2746.29,2663.86 2737.5,2669.5C 2733.89,2670.7 2730.22,2671.7 2726.5,2672.5C 2720.38,2672.73 2714.38,2672.07 2708.5,2670.5C 2701.25,2667.58 2695.91,2662.58 2692.5,2655.5C 2692.24,2652.73 2691.24,2650.39 2689.5,2648.5C 2689.5,2647.5 2689.5,2646.5 2689.5,2645.5C 2689.5,2561.83 2689.5,2478.17 2689.5,2394.5C 2691.14,2390.79 2691.8,2386.79 2691.5,2382.5C 2692.42,2378.89 2693.09,2375.22 2693.5,2371.5C 2693.42,2368.22 2694.09,2365.22 2695.5,2362.5C 2697.22,2360.22 2697.89,2357.55 2697.5,2354.5C 2704.37,2333.42 2715.37,2314.76 2730.5,2298.5C 2732.59,2297.42 2733.92,2295.75 2734.5,2293.5C 2743.16,2284.67 2751.66,2275.67 2760,2266.5C 2768.22,2254.73 2775.38,2242.4 2781.5,2229.5C 2783.09,2227.89 2784.09,2225.89 2784.5,2223.5C 2784.72,2220.93 2785.39,2218.6 2786.5,2216.5C 2787.92,2214.49 2788.59,2212.15 2788.5,2209.5C 2789.13,2205.63 2790.13,2201.96 2791.5,2198.5C 2792.58,2195.37 2793.25,2192.04 2793.5,2188.5C 2793.5,2187.5 2793.5,2186.5 2793.5,2185.5C 2794.83,2176.69 2795.5,2167.53 2795.5,2158C 2795.33,2148.83 2795.17,2139.67 2795,2130.5C 2794.62,2129.94 2794.12,2129.61 2793.5,2129.5C 2793.5,2127.5 2793.5,2125.5 2793.5,2123.5C 2793.21,2113.17 2792.87,2102.83 2792.5,2092.5C 2792.21,2079.16 2791.71,2065.83 2791,2052.5C 2790.81,2049.96 2790.31,2047.63 2789.5,2045.5C 2788.77,2032.85 2788.44,2020.18 2788.5,2007.5C 2788.36,1997.83 2788.03,1988.16 2787.5,1978.5C 2787.08,1964.5 2786.58,1950.5 2786,1936.5C 2785.72,1935.58 2785.22,1934.92 2784.5,1934.5C 2784.47,1923.16 2784.14,1911.82 2783.5,1900.5C 2783.25,1890.5 2782.92,1880.5 2782.5,1870.5C 2782.07,1855.5 2781.57,1840.5 2781,1825.5C 2780.8,1823.62 2780.3,1821.95 2779.5,1820.5C 2778.45,1802.46 2778.45,1784.46 2779.5,1766.5C 2781.16,1761.94 2782.83,1757.28 2784.5,1752.5C 2791.38,1738.62 2802.05,1728.95 2816.5,1723.5C 2820.88,1722.63 2824.88,1721.29 2828.5,1719.5C 2838.72,1717.94 2848.72,1718.61 2858.5,1721.5 Z"/></g>
<g><path style="opacity:1" fill="#ffc1a5" d="M 2507.5,1722.5 C 2495.09,1720.93 2482.76,1721.26 2470.5,1723.5C 2472.03,1721.87 2474.03,1721.04 2476.5,1721C 2486.17,1719 2495.83,1719 2505.5,1721C 2506.42,1721.28 2507.08,1721.78 2507.5,1722.5 Z"/></g>
<g><path style="opacity:1" fill="#fffefe" d="M 2507.5,1722.5 C 2511.84,1723.5 2516.17,1724.67 2520.5,1726C 2534.17,1732.33 2546.84,1740.33 2558.5,1750C 2585.83,1775.86 2606.83,1806.02 2621.5,1840.5C 2621.12,1842.7 2621.79,1844.36 2623.5,1845.5C 2624.7,1848.42 2625.7,1851.42 2626.5,1854.5C 2626.17,1857.49 2627.17,1859.82 2629.5,1861.5C 2629.5,1861.83 2629.5,1862.17 2629.5,1862.5C 2629.94,1866.31 2631.27,1869.65 2633.5,1872.5C 2637.19,1883.3 2639.86,1894.3 2641.5,1905.5C 2641.54,1909.69 2641.88,1913.85 2642.5,1918C 2642.57,1919.99 2643.24,1921.49 2644.5,1922.5C 2644.5,1924.17 2644.5,1925.83 2644.5,1927.5C 2645.83,1941.47 2646.5,1955.47 2646.5,1969.5C 2645.56,1974.07 2645.23,1978.74 2645.5,1983.5C 2644.22,1984.69 2643.56,1986.36 2643.5,1988.5C 2642.9,1994.85 2642.23,2001.18 2641.5,2007.5C 2640.5,2013.5 2639.5,2019.5 2638.5,2025.5C 2636.31,2027.52 2635.31,2030.19 2635.5,2033.5C 2632.04,2042.53 2628.38,2051.53 2624.5,2060.5C 2623.09,2060.97 2622.43,2061.97 2622.5,2063.5C 2620.98,2066.04 2619.65,2068.71 2618.5,2071.5C 2616.75,2072.66 2615.75,2074.33 2615.5,2076.5C 2614.6,2077.29 2613.93,2078.29 2613.5,2079.5C 2612.09,2079.97 2611.43,2080.97 2611.5,2082.5C 2606.16,2089.8 2600.33,2096.8 2594,2103.5C 2585.64,2110.53 2577.97,2118.19 2571,2126.5C 2564.14,2135.56 2558.31,2145.22 2553.5,2155.5C 2552.09,2155.97 2551.43,2156.97 2551.5,2158.5C 2547.32,2166.02 2544.32,2174.02 2542.5,2182.5C 2541.08,2184.51 2540.41,2186.85 2540.5,2189.5C 2538.52,2197.39 2537.19,2205.39 2536.5,2213.5C 2535.83,2219.49 2535.5,2225.66 2535.5,2232C 2535.35,2241.71 2536.01,2251.21 2537.5,2260.5C 2537.5,2261.83 2537.5,2263.17 2537.5,2264.5C 2537.33,2276.5 2537.5,2288.5 2538,2300.5C 2538.18,2303.69 2538.68,2306.69 2539.5,2309.5C 2539.5,2310.17 2539.5,2310.83 2539.5,2311.5C 2540.23,2320.82 2540.57,2330.15 2540.5,2339.5C 2540.94,2353.83 2541.44,2368.17 2542,2382.5C 2542.19,2384.71 2542.69,2386.71 2543.5,2388.5C 2544.18,2399.82 2544.51,2411.15 2544.5,2422.5C 2545.23,2431.82 2545.57,2441.15 2545.5,2450.5C 2545.54,2458.85 2545.88,2467.18 2546.5,2475.5C 2546.57,2485.18 2546.91,2494.84 2547.5,2504.5C 2547.06,2514.07 2547.73,2523.4 2549.5,2532.5C 2549.5,2533.17 2549.5,2533.83 2549.5,2534.5C 2550.3,2546.15 2550.64,2557.82 2550.5,2569.5C 2551.18,2587.83 2551.51,2606.16 2551.5,2624.5C 2550.85,2626.44 2550.52,2628.44 2550.5,2630.5C 2548.98,2636.53 2546.65,2642.2 2543.5,2647.5C 2541.46,2648.58 2540.12,2650.25 2539.5,2652.5C 2530.67,2662.76 2519.67,2669.76 2506.5,2673.5C 2496.17,2674.79 2485.84,2674.79 2475.5,2673.5C 2475.39,2672.88 2475.06,2672.38 2474.5,2672C 2472.13,2671.56 2469.8,2671.06 2467.5,2670.5C 2462.64,2669.38 2458.31,2667.21 2454.5,2664C 2450,2659.5 2445.5,2655 2441,2650.5C 2438.71,2645.58 2436.21,2640.91 2433.5,2636.5C 2433.13,2633.43 2432.46,2630.43 2431.5,2627.5C 2430.8,2618.85 2430.46,2610.18 2430.5,2601.5C 2431.07,2592.18 2431.4,2582.84 2431.5,2573.5C 2432.49,2557.85 2433.15,2542.19 2433.5,2526.5C 2433.43,2517.15 2433.77,2507.82 2434.5,2498.5C 2434.53,2487.16 2434.86,2475.82 2435.5,2464.5C 2436.31,2462.71 2436.81,2460.71 2437,2458.5C 2437.56,2444.17 2438.06,2429.83 2438.5,2415.5C 2438.45,2406.48 2438.78,2397.48 2439.5,2388.5C 2439.49,2377.15 2439.82,2365.82 2440.5,2354.5C 2442.19,2346.06 2442.86,2337.39 2442.5,2328.5C 2443.21,2320.85 2443.54,2313.19 2443.5,2305.5C 2443.45,2296.48 2443.78,2287.48 2444.5,2278.5C 2444.46,2267.49 2444.79,2256.49 2445.5,2245.5C 2446.29,2244.39 2446.79,2243.06 2447,2241.5C 2447.67,2232.5 2447.67,2223.5 2447,2214.5C 2446.62,2213.94 2446.12,2213.61 2445.5,2213.5C 2445.32,2207.43 2444.66,2201.43 2443.5,2195.5C 2443.59,2192.85 2442.92,2190.51 2441.5,2188.5C 2440.5,2184.5 2439.5,2180.5 2438.5,2176.5C 2438.25,2174.03 2437.25,2172.03 2435.5,2170.5C 2429.17,2152.83 2420,2136.83 2408,2122.5C 2396.61,2111.44 2385.61,2100.11 2375,2088.5C 2370.55,2081.9 2366.38,2075.24 2362.5,2068.5C 2360.48,2065.13 2358.48,2061.79 2356.5,2058.5C 2356.11,2056.72 2355.44,2055.05 2354.5,2053.5C 2353.92,2050.05 2352.58,2047.05 2350.5,2044.5C 2349.53,2038.88 2347.69,2033.55 2345,2028.5C 2344.21,2024.11 2343.38,2019.78 2342.5,2015.5C 2342.74,2013.1 2342.07,2011.1 2340.5,2009.5C 2339.83,2004.17 2339.17,1998.83 2338.5,1993.5C 2338.3,1986.97 2337.64,1980.64 2336.5,1974.5C 2335.57,1963.2 2335.23,1951.87 2335.5,1940.5C 2336.94,1926.76 2338.94,1913.09 2341.5,1899.5C 2343.04,1897.16 2343.71,1894.5 2343.5,1891.5C 2344.01,1889.11 2344.68,1886.77 2345.5,1884.5C 2347.32,1880.44 2348.66,1876.1 2349.5,1871.5C 2349.63,1869.78 2349.96,1868.12 2350.5,1866.5C 2352.58,1863.93 2353.91,1860.93 2354.5,1857.5C 2354.43,1856.04 2354.77,1854.71 2355.5,1853.5C 2357.58,1850.95 2358.92,1847.95 2359.5,1844.5C 2369.33,1819.16 2383,1796.16 2400.5,1775.5C 2402.59,1774.42 2403.92,1772.75 2404.5,1770.5C 2409.59,1763.9 2415.26,1757.74 2421.5,1752C 2428.82,1745.18 2436.82,1739.34 2445.5,1734.5C 2447.03,1734.57 2448.03,1733.91 2448.5,1732.5C 2455.07,1727.89 2462.41,1724.89 2470.5,1723.5C 2482.76,1721.26 2495.09,1720.93 2507.5,1722.5 Z"/></g>
<g><path style="opacity:1" fill="#ffc4ab" d="M 2828.5,1719.5 C 2824.88,1721.29 2820.88,1722.63 2816.5,1723.5C 2817.35,1722.03 2818.68,1721.2 2820.5,1721C 2823.12,1720.18 2825.78,1719.68 2828.5,1719.5 Z"/></g>
<g><path style="opacity:1" fill="#ff9568" d="M 2858.5,1721.5 C 2861.72,1721.35 2864.38,1722.35 2866.5,1724.5C 2863.6,1723.87 2860.94,1722.87 2858.5,1721.5 Z"/></g>
<g><path style="opacity:1" fill="#ffb897" d="M 2448.5,1732.5 C 2448.03,1733.91 2447.03,1734.57 2445.5,1734.5C 2445.97,1733.09 2446.97,1732.43 2448.5,1732.5 Z"/></g>
<g><path style="opacity:1" fill="#ffac89" d="M 2886.5,1739.5 C 2887.91,1739.97 2888.57,1740.97 2888.5,1742.5C 2887.09,1742.03 2886.43,1741.03 2886.5,1739.5 Z"/></g>
<g><path style="opacity:1" fill="#ffc5ab" d="M 2784.5,1752.5 C 2782.83,1757.28 2781.16,1761.94 2779.5,1766.5C 2779.65,1761.17 2781.32,1756.5 2784.5,1752.5 Z"/></g>
<g><path style="opacity:1" fill="#ff6418" d="M 2234.5,1764.5 C 2233.86,1765.48 2233.19,1766.48 2232.5,1767.5C 2233.61,1769.39 2234.44,1771.39 2235,1773.5C 2268.79,1829.1 2302.29,1884.76 2335.5,1940.5C 2335.23,1951.87 2335.57,1963.2 2336.5,1974.5C 2336.29,1980.88 2336.63,1987.21 2337.5,1993.5C 2337.26,1996.58 2337.59,1999.58 2338.5,2002.5C 2338.15,2003.7 2337.65,2003.7 2337,2002.5C 2299.18,1938.2 2260.85,1874.2 2222,1810.5C 2217.12,1802.81 2212.96,1794.81 2209.5,1786.5C 2212.3,1783.2 2215.3,1780.04 2218.5,1777C 2223.71,1772.57 2229.05,1768.41 2234.5,1764.5 Z"/></g>
<g><path style="opacity:1" fill="#ffc6ab" d="M 2404.5,1770.5 C 2403.92,1772.75 2402.59,1774.42 2400.5,1775.5C 2401.08,1773.25 2402.41,1771.58 2404.5,1770.5 Z"/></g>
<g><path style="opacity:0.997" fill="#ff6719" d="M 2209.5,1786.5 C 2212.96,1794.81 2217.12,1802.81 2222,1810.5C 2260.85,1874.2 2299.18,1938.2 2337,2002.5C 2337.65,2003.7 2338.15,2003.7 2338.5,2002.5C 2337.59,1999.58 2337.26,1996.58 2337.5,1993.5C 2337.83,1993.5 2338.17,1993.5 2338.5,1993.5C 2339.17,1998.83 2339.83,2004.17 2340.5,2009.5C 2340.26,2011.9 2340.93,2013.9 2342.5,2015.5C 2343.38,2019.78 2344.21,2024.11 2345,2028.5C 2347.69,2033.55 2349.53,2038.88 2350.5,2044.5C 2351.08,2047.95 2352.42,2050.95 2354.5,2053.5C 2355.44,2055.05 2356.11,2056.72 2356.5,2058.5C 2356.98,2062.81 2358.98,2066.14 2362.5,2068.5C 2366.38,2075.24 2370.55,2081.9 2375,2088.5C 2385.61,2100.11 2396.61,2111.44 2408,2122.5C 2420,2136.83 2429.17,2152.83 2435.5,2170.5C 2435.75,2172.97 2436.75,2174.97 2438.5,2176.5C 2439.5,2180.5 2440.5,2184.5 2441.5,2188.5C 2441.41,2191.15 2442.08,2193.49 2443.5,2195.5C 2444.66,2201.43 2445.32,2207.43 2445.5,2213.5C 2445.5,2224.17 2445.5,2234.83 2445.5,2245.5C 2444.79,2256.49 2444.46,2267.49 2444.5,2278.5C 2443.69,2280.29 2443.19,2282.29 2443,2284.5C 2442.5,2291.49 2442.33,2298.49 2442.5,2305.5C 2441.74,2313.14 2441.4,2320.81 2441.5,2328.5C 2440.92,2337.15 2440.58,2345.82 2440.5,2354.5C 2439.82,2365.82 2439.49,2377.15 2439.5,2388.5C 2438.69,2390.29 2438.19,2392.29 2438,2394.5C 2437.5,2401.49 2437.33,2408.49 2437.5,2415.5C 2436.57,2431.82 2435.9,2448.15 2435.5,2464.5C 2434.86,2475.82 2434.53,2487.16 2434.5,2498.5C 2432.73,2507.6 2432.06,2516.93 2432.5,2526.5C 2431.51,2542.15 2430.85,2557.81 2430.5,2573.5C 2430,2582.83 2429.67,2592.16 2429.5,2601.5C 2429.26,2610.21 2429.59,2618.87 2430.5,2627.5C 2430.53,2630.92 2431.53,2633.92 2433.5,2636.5C 2436.21,2640.91 2438.71,2645.58 2441,2650.5C 2445.5,2655 2450,2659.5 2454.5,2664C 2458.31,2667.21 2462.64,2669.38 2467.5,2670.5C 2469.62,2672.65 2472.28,2673.65 2475.5,2673.5C 2480.24,2675 2485.24,2675.67 2490.5,2675.5C 2496.08,2675.63 2501.41,2674.97 2506.5,2673.5C 2519.67,2669.76 2530.67,2662.76 2539.5,2652.5C 2541.53,2651.46 2542.86,2649.79 2543.5,2647.5C 2546.65,2642.2 2548.98,2636.53 2550.5,2630.5C 2552.07,2628.9 2552.74,2626.9 2552.5,2624.5C 2553.52,2611.87 2553.52,2599.2 2552.5,2586.5C 2552.1,2571.17 2551.6,2555.83 2551,2540.5C 2550.81,2538.29 2550.31,2536.29 2549.5,2534.5C 2549.5,2533.83 2549.5,2533.17 2549.5,2532.5C 2549.33,2523.16 2549,2513.83 2548.5,2504.5C 2548.29,2494.83 2547.96,2485.16 2547.5,2475.5C 2547.67,2467.14 2547.33,2458.8 2546.5,2450.5C 2546.94,2440.93 2546.27,2431.6 2544.5,2422.5C 2544.51,2411.15 2544.18,2399.82 2543.5,2388.5C 2543.09,2372.49 2542.43,2356.49 2541.5,2340.5C 2542.31,2342.29 2542.81,2344.29 2543,2346.5C 2589.76,2424.26 2636.1,2502.26 2682,2580.5C 2683.85,2582.9 2685.69,2585.24 2687.5,2587.5C 2686.85,2607.2 2687.51,2626.53 2689.5,2645.5C 2689.5,2646.5 2689.5,2647.5 2689.5,2648.5C 2689.76,2651.27 2690.76,2653.61 2692.5,2655.5C 2695.91,2662.58 2701.25,2667.58 2708.5,2670.5C 2709.06,2671.79 2710.06,2672.62 2711.5,2673C 2716.49,2673.5 2721.49,2673.67 2726.5,2673.5C 2730.79,2673.52 2734.45,2672.19 2737.5,2669.5C 2746.29,2663.86 2751.79,2655.86 2754,2645.5C 2754.5,2582.5 2754.67,2519.5 2754.5,2456.5C 2754.83,2456.5 2755.17,2456.5 2755.5,2456.5C 2755.33,2519.5 2755.5,2582.5 2756,2645.5C 2761.7,2654.37 2767.2,2663.37 2772.5,2672.5C 2772.14,2673.18 2771.8,2673.85 2771.5,2674.5C 2762.19,2680.32 2752.19,2684.82 2741.5,2688C 2711.66,2702.84 2680.99,2715.84 2649.5,2727C 2635.74,2732.21 2622.08,2737.54 2608.5,2743C 2529.8,2768.07 2449.8,2787.9 2368.5,2802.5C 2360.82,2803.41 2353.15,2804.41 2345.5,2805.5C 2352.27,2803.38 2359.27,2801.71 2366.5,2800.5C 2308.41,2703.33 2250.58,2606 2193,2508.5C 2190.24,2504.64 2187.74,2500.64 2185.5,2496.5C 2185.04,2495.7 2184.38,2495.37 2183.5,2495.5C 2218.84,2460.8 2228.01,2420.13 2211,2373.5C 2193.7,2337.96 2165.37,2316.29 2126,2308.5C 2107.85,2307.56 2089.68,2307.23 2071.5,2307.5C 2028.43,2234.37 1985.1,2161.37 1941.5,2088.5C 1971.17,2088.67 2000.84,2088.5 2030.5,2088C 2073.27,2086.12 2104.94,2066.79 2125.5,2030C 2146.89,1982.61 2139.56,1940.44 2103.5,1903.5C 2105.02,1903.49 2106.18,1902.82 2107,1901.5C 2136.29,1859.03 2170.45,1820.7 2209.5,1786.5 Z"/></g>
<g><path style="opacity:1" fill="#ffceb9" d="M 2779.5,1820.5 C 2780.3,1821.95 2780.8,1823.62 2781,1825.5C 2781.57,1840.5 2782.07,1855.5 2782.5,1870.5C 2782.17,1870.5 2781.83,1870.5 2781.5,1870.5C 2780.8,1853.83 2780.13,1837.17 2779.5,1820.5 Z"/></g>
<g><path style="opacity:1" fill="#ffb695" d="M 2621.5,1840.5 C 2622.54,1841.93 2623.2,1843.6 2623.5,1845.5C 2621.79,1844.36 2621.12,1842.7 2621.5,1840.5 Z"/></g>
<g><path style="opacity:1" fill="#ffae88" d="M 2359.5,1844.5 C 2358.92,1847.95 2357.58,1850.95 2355.5,1853.5C 2356.08,1850.05 2357.42,1847.05 2359.5,1844.5 Z"/></g>
<g><path style="opacity:1" fill="#ffccb5" d="M 2626.5,1854.5 C 2628.07,1856.51 2629.07,1858.84 2629.5,1861.5C 2627.17,1859.82 2626.17,1857.49 2626.5,1854.5 Z"/></g>
<g><path style="opacity:1" fill="#ffa072" d="M 2354.5,1857.5 C 2353.91,1860.93 2352.58,1863.93 2350.5,1866.5C 2351.1,1862.98 2352.43,1859.98 2354.5,1857.5 Z"/></g>
<g><path style="opacity:1" fill="#ffa67d" d="M 2629.5,1862.5 C 2630.12,1862.61 2630.62,1862.94 2631,1863.5C 2631.74,1866.55 2632.57,1869.55 2633.5,1872.5C 2631.27,1869.65 2629.94,1866.31 2629.5,1862.5 Z"/></g>
<g><path style="opacity:1" fill="#ffa57a" d="M 2349.5,1871.5 C 2348.66,1876.1 2347.32,1880.44 2345.5,1884.5C 2346.01,1880.45 2346.85,1876.45 2348,1872.5C 2348.38,1871.94 2348.88,1871.61 2349.5,1871.5 Z"/></g>
<g><path style="opacity:1" fill="#ffb08e" d="M 2898.5,1851.5 C 2898.33,1860.84 2898,1870.17 2897.5,1879.5C 2897.17,1879.5 2896.83,1879.5 2896.5,1879.5C 2896.28,1869.95 2896.94,1860.62 2898.5,1851.5 Z"/></g>
<g><path style="opacity:1" fill="#ffa174" d="M 2343.5,1891.5 C 2343.71,1894.5 2343.04,1897.16 2341.5,1899.5C 2341.57,1896.57 2342.23,1893.91 2343.5,1891.5 Z"/></g>
<g><path style="opacity:1" fill="#ffa178" d="M 2781.5,1870.5 C 2781.83,1870.5 2782.17,1870.5 2782.5,1870.5C 2782.92,1880.5 2783.25,1890.5 2783.5,1900.5C 2783.17,1900.5 2782.83,1900.5 2782.5,1900.5C 2781.94,1890.51 2781.61,1880.51 2781.5,1870.5 Z"/></g>
<g><path style="opacity:1" fill="#ff986c" d="M 2896.5,1879.5 C 2896.83,1879.5 2897.17,1879.5 2897.5,1879.5C 2897.37,1888.51 2897.04,1897.51 2896.5,1906.5C 2896.17,1906.5 2895.83,1906.5 2895.5,1906.5C 2895.56,1897.49 2895.89,1888.49 2896.5,1879.5 Z"/></g>
<g><path style="opacity:1" fill="#ffc6ab" d="M 2641.5,1905.5 C 2643.06,1910.94 2644.06,1916.61 2644.5,1922.5C 2643.24,1921.49 2642.57,1919.99 2642.5,1918C 2641.88,1913.85 2641.54,1909.69 2641.5,1905.5 Z"/></g>
<g><path style="opacity:1" fill="#ff773c" d="M 2782.5,1900.5 C 2782.83,1900.5 2783.17,1900.5 2783.5,1900.5C 2784.14,1911.82 2784.47,1923.16 2784.5,1934.5C 2785.05,1941.15 2785.39,1947.82 2785.5,1954.5C 2784.17,1949.38 2783.5,1943.88 2783.5,1938C 2783.02,1925.5 2782.69,1913 2782.5,1900.5 Z"/></g>
<g><path style="opacity:1" fill="#ffd2bf" d="M 2784.5,1934.5 C 2785.22,1934.92 2785.72,1935.58 2786,1936.5C 2786.58,1950.5 2787.08,1964.5 2787.5,1978.5C 2787.17,1978.5 2786.83,1978.5 2786.5,1978.5C 2786.17,1970.5 2785.83,1962.5 2785.5,1954.5C 2785.39,1947.82 2785.05,1941.15 2784.5,1934.5 Z"/></g>
<g><path style="opacity:1" fill="#ffd1bd" d="M 2894.5,1937.5 C 2893.95,1944.15 2893.61,1950.82 2893.5,1957.5C 2893.12,1965.83 2892.78,1974.16 2892.5,1982.5C 2892.17,1982.5 2891.83,1982.5 2891.5,1982.5C 2891.94,1968.17 2892.44,1953.83 2893,1939.5C 2893.28,1938.58 2893.78,1937.92 2894.5,1937.5 Z"/></g>
<g><path style="opacity:1" fill="#ff763b" d="M 2895.5,1906.5 C 2895.83,1906.5 2896.17,1906.5 2896.5,1906.5C 2896.32,1918.34 2895.98,1930.17 2895.5,1942C 2895.49,1947.55 2894.83,1952.71 2893.5,1957.5C 2893.61,1950.82 2893.95,1944.15 2894.5,1937.5C 2894.44,1927.15 2894.77,1916.82 2895.5,1906.5 Z"/></g>
<g><path style="opacity:1" fill="#ff9b6e" d="M 2644.5,1927.5 C 2646.13,1933.24 2646.97,1939.24 2647,1945.5C 2647.82,1953.68 2647.66,1961.68 2646.5,1969.5C 2646.5,1955.47 2645.83,1941.47 2644.5,1927.5 Z"/></g>
<g><path style="opacity:1" fill="#ffaf88" d="M 2336.5,1974.5 C 2337.64,1980.64 2338.3,1986.97 2338.5,1993.5C 2338.17,1993.5 2337.83,1993.5 2337.5,1993.5C 2336.63,1987.21 2336.29,1980.88 2336.5,1974.5 Z"/></g>
<g><path style="opacity:1" fill="#ffdac9" d="M 2645.5,1983.5 C 2644.81,1991.75 2643.48,1999.75 2641.5,2007.5C 2642.23,2001.18 2642.9,1994.85 2643.5,1988.5C 2643.56,1986.36 2644.22,1984.69 2645.5,1983.5 Z"/></g>
<g><path style="opacity:1" fill="#ff9e74" d="M 2891.5,1982.5 C 2891.83,1982.5 2892.17,1982.5 2892.5,1982.5C 2892.53,1994.36 2891.86,2006.03 2890.5,2017.5C 2890.8,2005.83 2891.13,1994.17 2891.5,1982.5 Z"/></g>
<g><path style="opacity:1" fill="#ffb392" d="M 2786.5,1978.5 C 2786.83,1978.5 2787.17,1978.5 2787.5,1978.5C 2788.03,1988.16 2788.36,1997.83 2788.5,2007.5C 2787.83,2003.17 2787.17,1998.83 2786.5,1994.5C 2786.5,1989.17 2786.5,1983.83 2786.5,1978.5 Z"/></g>
<g><path style="opacity:0.995" fill="#f94e11" d="M 3325.5,2010.5 C 3361.82,2147.77 3358.49,2284.1 3315.5,2419.5C 3301.69,2459.74 3285.03,2498.74 3265.5,2536.5C 3263.17,2540.81 3260.5,2544.81 3257.5,2548.5C 3255.93,2548.94 3254.76,2549.94 3254,2551.5C 3248.06,2562.67 3241.4,2573.34 3234,2583.5C 3198.73,2523.9 3163.06,2464.57 3127,2405.5C 3126.15,2403.15 3125.32,2400.81 3124.5,2398.5C 3144.23,2373.6 3163.4,2348.27 3182,2322.5C 3182.97,2320.61 3183.64,2318.61 3184,2316.5C 3212.36,2274.25 3237.36,2229.92 3259,2183.5C 3260.71,2182.12 3262.05,2180.46 3263,2178.5C 3266.65,2166.53 3271.65,2155.2 3278,2144.5C 3278.94,2141.85 3279.77,2139.18 3280.5,2136.5C 3297.47,2097.32 3311.31,2056.98 3322,2015.5C 3322.74,2013.4 3323.9,2011.74 3325.5,2010.5 Z"/></g>
<g><path style="opacity:1" fill="#ffb18c" d="M 2340.5,2009.5 C 2342.07,2011.1 2342.74,2013.1 2342.5,2015.5C 2340.93,2013.9 2340.26,2011.9 2340.5,2009.5 Z"/></g>
<g><path style="opacity:1" fill="#ff9e70" d="M 2638.5,2025.5 C 2638.1,2028.49 2637.1,2031.15 2635.5,2033.5C 2635.31,2030.19 2636.31,2027.52 2638.5,2025.5 Z"/></g>
<g><path style="opacity:1" fill="#ff9d6e" d="M 2350.5,2044.5 C 2352.58,2047.05 2353.92,2050.05 2354.5,2053.5C 2352.42,2050.95 2351.08,2047.95 2350.5,2044.5 Z"/></g>
<g><path style="opacity:1" fill="#ffd2be" d="M 2889.5,2047.5 C 2888.73,2057.81 2888.4,2068.15 2888.5,2078.5C 2887.83,2083.5 2887.17,2088.5 2886.5,2093.5C 2886.83,2078.83 2887.33,2064.16 2888,2049.5C 2888.28,2048.58 2888.78,2047.92 2889.5,2047.5 Z"/></g>
<g><path style="opacity:1" fill="#ffcfb9" d="M 2789.5,2045.5 C 2790.31,2047.63 2790.81,2049.96 2791,2052.5C 2791.71,2065.83 2792.21,2079.16 2792.5,2092.5C 2791.83,2087.5 2791.17,2082.5 2790.5,2077.5C 2790.61,2066.81 2790.28,2056.15 2789.5,2045.5 Z"/></g>
<g><path style="opacity:1" fill="#ffb694" d="M 2624.5,2060.5 C 2624.57,2062.03 2623.91,2063.03 2622.5,2063.5C 2622.43,2061.97 2623.09,2060.97 2624.5,2060.5 Z"/></g>
<g><path style="opacity:1" fill="#ff884f" d="M 2356.5,2058.5 C 2358.48,2061.79 2360.48,2065.13 2362.5,2068.5C 2358.98,2066.14 2356.98,2062.81 2356.5,2058.5 Z"/></g>
<g><path style="opacity:1" fill="#ff8d58" d="M 2618.5,2071.5 C 2618.41,2073.85 2617.41,2075.51 2615.5,2076.5C 2615.75,2074.33 2616.75,2072.66 2618.5,2071.5 Z"/></g>
<g><path style="opacity:1" fill="#ffa074" d="M 2613.5,2079.5 C 2613.57,2081.03 2612.91,2082.03 2611.5,2082.5C 2611.43,2080.97 2612.09,2079.97 2613.5,2079.5 Z"/></g>
<g><path style="opacity:0.979" fill="#ff6f1c" d="M 1654.5,2302.5 C 1617.53,2239.89 1580.03,2177.56 1542,2115.5C 1541.15,2113.15 1540.32,2110.81 1539.5,2108.5C 1541.27,2107.24 1542.94,2105.74 1544.5,2104C 1556.54,2096.28 1569.54,2090.95 1583.5,2088C 1606.5,2086.01 1629.5,2086.01 1652.5,2088C 1693.57,2097.41 1721.07,2121.91 1735,2161.5C 1748.55,2211.49 1735.38,2252.66 1695.5,2285C 1685.91,2290.82 1675.91,2295.98 1665.5,2300.5C 1661.87,2301.43 1658.2,2302.09 1654.5,2302.5 Z"/></g>
<g><path style="opacity:0.981" fill="#ff6b1b" d="M 1941.5,2088.5 C 1985.1,2161.37 2028.43,2234.37 2071.5,2307.5C 2020.5,2307.67 1969.5,2307.5 1918.5,2307C 1863.9,2299.24 1830.73,2268.41 1819,2214.5C 1814.25,2170.33 1829.08,2134.83 1863.5,2108C 1887,2092.59 1913,2086.09 1941.5,2088.5 Z"/></g>
<g><path style="opacity:0.972" fill="#ff711d" d="M 1539.5,2108.5 C 1540.32,2110.81 1541.15,2113.15 1542,2115.5C 1580.03,2177.56 1617.53,2239.89 1654.5,2302.5C 1651.71,2303.02 1649.05,2303.85 1646.5,2305C 1627.5,2305.67 1608.5,2305.67 1589.5,2305C 1541.47,2295.13 1511.14,2266.63 1498.5,2219.5C 1490.44,2173.86 1504.1,2136.86 1539.5,2108.5 Z"/></g>
<g><path style="opacity:1" fill="#ff9668" d="M 2888.5,2078.5 C 2888.29,2094.03 2887.29,2109.37 2885.5,2124.5C 2885.79,2114.17 2886.13,2103.83 2886.5,2093.5C 2887.17,2088.5 2887.83,2083.5 2888.5,2078.5 Z"/></g>
<g><path style="opacity:1" fill="#ff9363" d="M 2790.5,2077.5 C 2791.17,2082.5 2791.83,2087.5 2792.5,2092.5C 2792.87,2102.83 2793.21,2113.17 2793.5,2123.5C 2793.17,2123.5 2792.83,2123.5 2792.5,2123.5C 2791.63,2108.18 2790.97,2092.84 2790.5,2077.5 Z"/></g>
<g><path style="opacity:1" fill="#ffab84" d="M 2553.5,2155.5 C 2553.57,2157.03 2552.91,2158.03 2551.5,2158.5C 2551.43,2156.97 2552.09,2155.97 2553.5,2155.5 Z"/></g>
<g><path style="opacity:1" fill="#ff773b" d="M 2792.5,2123.5 C 2792.83,2123.5 2793.17,2123.5 2793.5,2123.5C 2793.5,2125.5 2793.5,2127.5 2793.5,2129.5C 2794.77,2148.18 2794.77,2166.84 2793.5,2185.5C 2793.5,2186.5 2793.5,2187.5 2793.5,2188.5C 2793.17,2188.5 2792.83,2188.5 2792.5,2188.5C 2793.63,2166.84 2793.63,2145.17 2792.5,2123.5 Z"/></g>
<g><path style="opacity:1" fill="#fe5f18" d="M 2885.5,2147.5 C 2885.1,2155.25 2885.6,2162.92 2887,2170.5C 2932.4,2245.57 2977.4,2320.91 3022,2396.5C 3024,2399.17 3026,2401.83 3028,2404.5C 3038.94,2424.88 3050.77,2444.71 3063.5,2464C 3056.63,2470.7 3049.96,2477.54 3043.5,2484.5C 3027.42,2501.25 3010.42,2516.92 2992.5,2531.5C 2991.83,2569.66 2991.17,2607.66 2990.5,2645.5C 2990.67,2561.83 2990.5,2478.17 2990,2394.5C 2989.7,2390.45 2989.2,2386.45 2988.5,2382.5C 2987.9,2377.14 2987.07,2371.81 2986,2366.5C 2985.62,2365.94 2985.12,2365.61 2984.5,2365.5C 2982.5,2358.82 2980.5,2352.15 2978.5,2345.5C 2978.57,2343.97 2977.91,2342.97 2976.5,2342.5C 2974.8,2335.43 2971.8,2329.1 2967.5,2323.5C 2967.57,2321.97 2966.91,2320.97 2965.5,2320.5C 2954.41,2302.74 2940.75,2287.07 2924.5,2273.5C 2923.92,2271.25 2922.59,2269.58 2920.5,2268.5C 2912.48,2257.8 2905.48,2246.47 2899.5,2234.5C 2898.92,2231.05 2897.58,2228.05 2895.5,2225.5C 2894.79,2221.98 2893.79,2218.64 2892.5,2215.5C 2892.55,2212.01 2891.55,2209.01 2889.5,2206.5C 2889.01,2204.19 2888.67,2201.86 2888.5,2199.5C 2888.19,2195.64 2887.52,2191.97 2886.5,2188.5C 2884.55,2174.76 2884.21,2161.1 2885.5,2147.5 Z"/></g>
<g><path style="opacity:1" fill="#ffb38e" d="M 2435.5,2170.5 C 2437.25,2172.03 2438.25,2174.03 2438.5,2176.5C 2436.75,2174.97 2435.75,2172.97 2435.5,2170.5 Z"/></g>
<g><path style="opacity:1" fill="#ffe5d9" d="M 2793.5,2129.5 C 2794.12,2129.61 2794.62,2129.94 2795,2130.5C 2795.17,2139.67 2795.33,2148.83 2795.5,2158C 2795.5,2167.53 2794.83,2176.69 2793.5,2185.5C 2794.77,2166.84 2794.77,2148.18 2793.5,2129.5 Z"/></g>
<g><path style="opacity:1" fill="#ffa377" d="M 2542.5,2182.5 C 2542.59,2185.15 2541.92,2187.49 2540.5,2189.5C 2540.41,2186.85 2541.08,2184.51 2542.5,2182.5 Z"/></g>
<g><path style="opacity:1" fill="#ffa982" d="M 2792.5,2188.5 C 2792.83,2188.5 2793.17,2188.5 2793.5,2188.5C 2793.25,2192.04 2792.58,2195.37 2791.5,2198.5C 2791.34,2195.1 2791.68,2191.76 2792.5,2188.5 Z"/></g>
<g><path style="opacity:1" fill="#ffaf89" d="M 2441.5,2188.5 C 2442.92,2190.51 2443.59,2192.85 2443.5,2195.5C 2442.08,2193.49 2441.41,2191.15 2441.5,2188.5 Z"/></g>
<g><path style="opacity:1" fill="#ffa881" d="M 2886.5,2188.5 C 2887.52,2191.97 2888.19,2195.64 2888.5,2199.5C 2886.78,2196.16 2886.12,2192.49 2886.5,2188.5 Z"/></g>
<g><path style="opacity:1" fill="#ff9566" d="M 2889.5,2206.5 C 2891.55,2209.01 2892.55,2212.01 2892.5,2215.5C 2891.05,2212.75 2890.05,2209.75 2889.5,2206.5 Z"/></g>
<g><path style="opacity:1" fill="#ffa67d" d="M 2788.5,2209.5 C 2788.59,2212.15 2787.92,2214.49 2786.5,2216.5C 2786.41,2213.85 2787.08,2211.51 2788.5,2209.5 Z"/></g>
<g><path style="opacity:1" fill="#ffc5a9" d="M 2445.5,2213.5 C 2446.12,2213.61 2446.62,2213.94 2447,2214.5C 2447.67,2223.5 2447.67,2232.5 2447,2241.5C 2446.79,2243.06 2446.29,2244.39 2445.5,2245.5C 2445.5,2234.83 2445.5,2224.17 2445.5,2213.5 Z"/></g>
<g><path style="opacity:1" fill="#ffa57c" d="M 2784.5,2223.5 C 2784.09,2225.89 2783.09,2227.89 2781.5,2229.5C 2781.62,2226.9 2782.62,2224.9 2784.5,2223.5 Z"/></g>
<g><path style="opacity:1" fill="#ffb797" d="M 2895.5,2225.5 C 2897.58,2228.05 2898.92,2231.05 2899.5,2234.5C 2897.42,2231.95 2896.08,2228.95 2895.5,2225.5 Z"/></g>
<g><path style="opacity:1" fill="#ffb896" d="M 2536.5,2213.5 C 2536.58,2229.17 2536.91,2244.84 2537.5,2260.5C 2536.01,2251.21 2535.35,2241.71 2535.5,2232C 2535.5,2225.66 2535.83,2219.49 2536.5,2213.5 Z"/></g>
<g><path style="opacity:1" fill="#ffccb5" d="M 2920.5,2268.5 C 2922.59,2269.58 2923.92,2271.25 2924.5,2273.5C 2922.41,2272.42 2921.08,2270.75 2920.5,2268.5 Z"/></g>
<g><path style="opacity:1" fill="#ff6418" d="M 2538.5,2283.5 C 2540.19,2284.47 2541.69,2285.81 2543,2287.5C 2591.19,2368.56 2639.36,2449.56 2687.5,2530.5C 2687.5,2549.5 2687.5,2568.5 2687.5,2587.5C 2685.69,2585.24 2683.85,2582.9 2682,2580.5C 2636.1,2502.26 2589.76,2424.26 2543,2346.5C 2542.81,2344.29 2542.31,2342.29 2541.5,2340.5C 2541.5,2340.17 2541.5,2339.83 2541.5,2339.5C 2541.67,2332.16 2541.5,2324.83 2541,2317.5C 2540.81,2315.29 2540.31,2313.29 2539.5,2311.5C 2539.5,2310.83 2539.5,2310.17 2539.5,2309.5C 2539.42,2300.82 2539.08,2292.15 2538.5,2283.5 Z"/></g>
<g><path style="opacity:1" fill="#ff854a" d="M 2444.5,2278.5 C 2443.78,2287.48 2443.45,2296.48 2443.5,2305.5C 2443.17,2305.5 2442.83,2305.5 2442.5,2305.5C 2442.33,2298.49 2442.5,2291.49 2443,2284.5C 2443.19,2282.29 2443.69,2280.29 2444.5,2278.5 Z"/></g>
<g><path style="opacity:1" fill="#ffcab1" d="M 2734.5,2293.5 C 2733.92,2295.75 2732.59,2297.42 2730.5,2298.5C 2731.08,2296.25 2732.41,2294.58 2734.5,2293.5 Z"/></g>
<g><path style="opacity:1" fill="#ffceb6" d="M 2537.5,2264.5 C 2538.49,2270.64 2538.82,2276.98 2538.5,2283.5C 2539.08,2292.15 2539.42,2300.82 2539.5,2309.5C 2538.68,2306.69 2538.18,2303.69 2538,2300.5C 2537.5,2288.5 2537.33,2276.5 2537.5,2264.5 Z"/></g>
<g><path style="opacity:1" fill="#ffb18d" d="M 2965.5,2320.5 C 2966.91,2320.97 2967.57,2321.97 2967.5,2323.5C 2966.09,2323.03 2965.43,2322.03 2965.5,2320.5 Z"/></g>
<g><path style="opacity:1" fill="#ff854a" d="M 2539.5,2311.5 C 2540.31,2313.29 2540.81,2315.29 2541,2317.5C 2541.5,2324.83 2541.67,2332.16 2541.5,2339.5C 2541.17,2339.5 2540.83,2339.5 2540.5,2339.5C 2540.57,2330.15 2540.23,2320.82 2539.5,2311.5 Z"/></g>
<g><path style="opacity:1" fill="#ffa376" d="M 2442.5,2305.5 C 2442.83,2305.5 2443.17,2305.5 2443.5,2305.5C 2443.54,2313.19 2443.21,2320.85 2442.5,2328.5C 2442.17,2328.5 2441.83,2328.5 2441.5,2328.5C 2441.4,2320.81 2441.74,2313.14 2442.5,2305.5 Z"/></g>
<g><path style="opacity:1" fill="#ffb594" d="M 2976.5,2342.5 C 2977.91,2342.97 2978.57,2343.97 2978.5,2345.5C 2977.09,2345.03 2976.43,2344.03 2976.5,2342.5 Z"/></g>
<g><path style="opacity:1" fill="#ffb28b" d="M 2441.5,2328.5 C 2441.83,2328.5 2442.17,2328.5 2442.5,2328.5C 2442.86,2337.39 2442.19,2346.06 2440.5,2354.5C 2440.58,2345.82 2440.92,2337.15 2441.5,2328.5 Z"/></g>
<g><path style="opacity:1" fill="#ffbe9e" d="M 2697.5,2354.5 C 2697.89,2357.55 2697.22,2360.22 2695.5,2362.5C 2695.57,2359.57 2696.23,2356.91 2697.5,2354.5 Z"/></g>
<g><path style="opacity:1" fill="#ffb18b" d="M 2540.5,2339.5 C 2540.83,2339.5 2541.17,2339.5 2541.5,2339.5C 2541.5,2339.83 2541.5,2340.17 2541.5,2340.5C 2542.43,2356.49 2543.09,2372.49 2543.5,2388.5C 2542.69,2386.71 2542.19,2384.71 2542,2382.5C 2541.44,2368.17 2540.94,2353.83 2540.5,2339.5 Z"/></g>
<g><path style="opacity:1" fill="#ffa980" d="M 2693.5,2371.5 C 2693.09,2375.22 2692.42,2378.89 2691.5,2382.5C 2691.17,2382.5 2690.83,2382.5 2690.5,2382.5C 2690.89,2379.16 2691.39,2375.83 2692,2372.5C 2692.38,2371.94 2692.88,2371.61 2693.5,2371.5 Z"/></g>
<g><path style="opacity:1" fill="#ffa67e" d="M 2984.5,2365.5 C 2985.12,2365.61 2985.62,2365.94 2986,2366.5C 2987.07,2371.81 2987.9,2377.14 2988.5,2382.5C 2986.8,2377.04 2985.47,2371.37 2984.5,2365.5 Z"/></g>
<g><path style="opacity:1" fill="#ffc9b0" d="M 2690.5,2382.5 C 2690.83,2382.5 2691.17,2382.5 2691.5,2382.5C 2691.8,2386.79 2691.14,2390.79 2689.5,2394.5C 2689.26,2391.39 2689.6,2388.39 2690.5,2385.5C 2690.5,2384.5 2690.5,2383.5 2690.5,2382.5 Z"/></g>
<g><path style="opacity:1" fill="#f95112" d="M 3124.5,2398.5 C 3125.32,2400.81 3126.15,2403.15 3127,2405.5C 3163.06,2464.57 3198.73,2523.9 3234,2583.5C 3241.4,2573.34 3248.06,2562.67 3254,2551.5C 3254.76,2549.94 3255.93,2548.94 3257.5,2548.5C 3257.41,2550.68 3256.75,2552.68 3255.5,2554.5C 3245.65,2570.2 3235.82,2585.87 3226,2601.5C 3225.33,2602.25 3224.5,2602.59 3223.5,2602.5C 3221.09,2602.69 3220.09,2604.03 3220.5,2606.5C 3219.18,2606.67 3218.01,2606.34 3217,2605.5C 3182.37,2546.94 3147.37,2488.61 3112,2430.5C 3109.75,2426.76 3108.25,2422.76 3107.5,2418.5C 3112.7,2411.42 3118.37,2404.75 3124.5,2398.5 Z"/></g>
<g><path style="opacity:1" fill="#ff864a" d="M 2439.5,2388.5 C 2438.78,2397.48 2438.45,2406.48 2438.5,2415.5C 2438.17,2415.5 2437.83,2415.5 2437.5,2415.5C 2437.33,2408.49 2437.5,2401.49 2438,2394.5C 2438.19,2392.29 2438.69,2390.29 2439.5,2388.5 Z"/></g>
<g><path style="opacity:1" fill="#ff8d55" d="M 2690.5,2385.5 C 2689.6,2388.39 2689.26,2391.39 2689.5,2394.5C 2689.5,2478.17 2689.5,2561.83 2689.5,2645.5C 2687.51,2626.53 2686.85,2607.2 2687.5,2587.5C 2687.5,2568.5 2687.5,2549.5 2687.5,2530.5C 2687.33,2485.83 2687.5,2441.17 2688,2396.5C 2687.91,2392.37 2688.74,2388.7 2690.5,2385.5 Z"/></g>
<g><path style="opacity:0.998" fill="#f95414" d="M 3107.5,2418.5 C 3108.25,2422.76 3109.75,2426.76 3112,2430.5C 3147.37,2488.61 3182.37,2546.94 3217,2605.5C 3218.01,2606.34 3219.18,2606.67 3220.5,2606.5C 3220.09,2604.03 3221.09,2602.69 3223.5,2602.5C 3219.59,2609.31 3215.42,2615.98 3211,2622.5C 3196.21,2641.12 3181.21,2659.46 3166,2677.5C 3146.14,2697.7 3125.97,2717.53 3105.5,2737C 3104.5,2737.33 3103.5,2737.67 3102.5,2738C 3094.44,2746.4 3085.77,2754.07 3076.5,2761C 3062.91,2771.18 3049.24,2781.18 3035.5,2791C 3019.31,2801.18 3002.98,2811.18 2986.5,2821C 2973.06,2828.39 2959.39,2835.22 2945.5,2841.5C 2944.85,2841.2 2944.18,2840.86 2943.5,2840.5C 2930.29,2846.94 2916.95,2853.11 2903.5,2859C 2897.95,2860.52 2892.62,2862.19 2887.5,2864C 2849.44,2801.38 2811.78,2738.55 2774.5,2675.5C 2774.86,2674.82 2775.2,2674.15 2775.5,2673.5C 2785.11,2668.36 2794.78,2663.19 2804.5,2658C 2806.93,2657.3 2809.26,2657.46 2811.5,2658.5C 2814.27,2661.77 2817.27,2664.94 2820.5,2668C 2822.41,2669.12 2824.41,2669.96 2826.5,2670.5C 2827.06,2671.79 2828.06,2672.62 2829.5,2673C 2835.83,2673.67 2842.17,2673.67 2848.5,2673C 2849.74,2672.77 2850.74,2672.27 2851.5,2671.5C 2857.42,2668.7 2862.42,2664.7 2866.5,2659.5C 2867.91,2659.03 2868.57,2658.03 2868.5,2656.5C 2868.99,2655 2869.66,2653.67 2870.5,2652.5C 2872.07,2650.9 2872.74,2648.9 2872.5,2646.5C 2872.5,2645.83 2872.5,2645.17 2872.5,2644.5C 2873.33,2635.68 2873.83,2626.68 2874,2617.5C 2881.27,2612.3 2888.77,2607.8 2896.5,2604C 2900.98,2599.2 2906.32,2595.53 2912.5,2593C 2915.44,2589.22 2919.11,2586.39 2923.5,2584.5C 2923.33,2604.84 2923.5,2625.17 2924,2645.5C 2924.38,2646.06 2924.88,2646.39 2925.5,2646.5C 2925.83,2647.83 2926.17,2649.17 2926.5,2650.5C 2926.26,2652.9 2926.93,2654.9 2928.5,2656.5C 2931.7,2660.35 2935.03,2664.19 2938.5,2668C 2940.41,2669.12 2942.41,2669.96 2944.5,2670.5C 2945.35,2671.97 2946.68,2672.8 2948.5,2673C 2953.68,2673.82 2958.68,2673.65 2963.5,2672.5C 2978.16,2669.18 2987.16,2660.18 2990.5,2645.5C 2991.17,2607.66 2991.83,2569.66 2992.5,2531.5C 3010.42,2516.92 3027.42,2501.25 3043.5,2484.5C 3051.08,2478.43 3058.24,2471.76 3065,2464.5C 3079.03,2448.97 3093.2,2433.64 3107.5,2418.5 Z"/></g>
<g><path style="opacity:1" fill="#ff864a" d="M 2544.5,2422.5 C 2546.27,2431.6 2546.94,2440.93 2546.5,2450.5C 2546.17,2450.5 2545.83,2450.5 2545.5,2450.5C 2545.57,2441.15 2545.23,2431.82 2544.5,2422.5 Z"/></g>
<g><path style="opacity:1" fill="#ff9e71" d="M 2789.5,2438.5 C 2783.5,2437.17 2777.5,2437.17 2771.5,2438.5C 2771.61,2437.88 2771.94,2437.38 2772.5,2437C 2777.83,2436.33 2783.17,2436.33 2788.5,2437C 2789.06,2437.38 2789.39,2437.88 2789.5,2438.5 Z"/></g>
<g><path style="opacity:1" fill="#ff9d70" d="M 2907.5,2438.5 C 2901.5,2437.17 2895.5,2437.17 2889.5,2438.5C 2889.61,2437.88 2889.94,2437.38 2890.5,2437C 2895.83,2436.33 2901.17,2436.33 2906.5,2437C 2907.06,2437.38 2907.39,2437.88 2907.5,2438.5 Z"/></g>
<g><path style="opacity:1" fill="#ff6218" d="M 2789.5,2438.5 C 2798.4,2441.25 2803.9,2447.25 2806,2456.5C 2806.17,2519.67 2806.67,2582.67 2807.5,2645.5C 2806.96,2648.7 2807.63,2651.36 2809.5,2653.5C 2810.44,2655.05 2811.11,2656.72 2811.5,2658.5C 2809.26,2657.46 2806.93,2657.3 2804.5,2658C 2794.78,2663.19 2785.11,2668.36 2775.5,2673.5C 2774.17,2673.83 2772.83,2674.17 2771.5,2674.5C 2771.8,2673.85 2772.14,2673.18 2772.5,2672.5C 2767.2,2663.37 2761.7,2654.37 2756,2645.5C 2755.5,2582.5 2755.33,2519.5 2755.5,2456.5C 2756.89,2453.99 2757.89,2451.33 2758.5,2448.5C 2761.21,2443.08 2765.55,2439.75 2771.5,2438.5C 2777.5,2437.17 2783.5,2437.17 2789.5,2438.5 Z"/></g>
<g><path style="opacity:1" fill="#ff6118" d="M 2907.5,2438.5 C 2909.92,2439.03 2912.26,2439.86 2914.5,2441C 2917.76,2443.43 2920.09,2446.6 2921.5,2450.5C 2922.06,2452.8 2922.56,2455.13 2923,2457.5C 2923.5,2499.83 2923.67,2542.17 2923.5,2584.5C 2919.11,2586.39 2915.44,2589.22 2912.5,2593C 2906.32,2595.53 2900.98,2599.2 2896.5,2604C 2888.77,2607.8 2881.27,2612.3 2874,2617.5C 2873.83,2626.68 2873.33,2635.68 2872.5,2644.5C 2872.33,2582.17 2872.5,2519.83 2873,2457.5C 2873.61,2455.85 2874.11,2454.18 2874.5,2452.5C 2876.19,2448.63 2878.53,2445.13 2881.5,2442C 2883.82,2440.01 2886.48,2438.84 2889.5,2438.5C 2895.5,2437.17 2901.5,2437.17 2907.5,2438.5 Z"/></g>
<g><path style="opacity:1" fill="#ffb087" d="M 2437.5,2415.5 C 2437.83,2415.5 2438.17,2415.5 2438.5,2415.5C 2438.06,2429.83 2437.56,2444.17 2437,2458.5C 2436.81,2460.71 2436.31,2462.71 2435.5,2464.5C 2435.9,2448.15 2436.57,2431.82 2437.5,2415.5 Z"/></g>
<g><path style="opacity:1" fill="#ff9867" d="M 2758.5,2448.5 C 2757.89,2451.33 2756.89,2453.99 2755.5,2456.5C 2755.17,2456.5 2754.83,2456.5 2754.5,2456.5C 2754.9,2453.28 2756.23,2450.61 2758.5,2448.5 Z"/></g>
<g><path style="opacity:1" fill="#ff7a41" d="M 2921.5,2450.5 C 2923.51,2452.67 2924.68,2455.33 2925,2458.5C 2925.5,2521.17 2925.67,2583.83 2925.5,2646.5C 2924.88,2646.39 2924.38,2646.06 2924,2645.5C 2923.5,2625.17 2923.33,2604.84 2923.5,2584.5C 2923.67,2542.17 2923.5,2499.83 2923,2457.5C 2922.56,2455.13 2922.06,2452.8 2921.5,2450.5 Z"/></g>
<g><path style="opacity:1" fill="#fec2a6" d="M 2874.5,2452.5 C 2874.11,2454.18 2873.61,2455.85 2873,2457.5C 2872.5,2519.83 2872.33,2582.17 2872.5,2644.5C 2872.5,2645.17 2872.5,2645.83 2872.5,2646.5C 2872.17,2646.5 2871.83,2646.5 2871.5,2646.5C 2871.33,2583.17 2871.5,2519.83 2872,2456.5C 2872.2,2454.68 2873.03,2453.35 2874.5,2452.5 Z"/></g>
<g><path style="opacity:1" fill="#ffa477" d="M 2545.5,2450.5 C 2545.83,2450.5 2546.17,2450.5 2546.5,2450.5C 2547.33,2458.8 2547.67,2467.14 2547.5,2475.5C 2547.17,2475.5 2546.83,2475.5 2546.5,2475.5C 2545.88,2467.18 2545.54,2458.85 2545.5,2450.5 Z"/></g>
<g><path style="opacity:0.992" fill="#ff6d1b" d="M 2183.5,2495.5 C 2184.38,2495.37 2185.04,2495.7 2185.5,2496.5C 2187.74,2500.64 2190.24,2504.64 2193,2508.5C 2250.58,2606 2308.41,2703.33 2366.5,2800.5C 2359.27,2801.71 2352.27,2803.38 2345.5,2805.5C 2325.72,2807.21 2306.06,2809.71 2286.5,2813C 2282.37,2813.48 2278.71,2814.65 2275.5,2816.5C 2257.6,2806.73 2240.6,2795.73 2224.5,2783.5C 2207.49,2771.5 2189.49,2761.33 2170.5,2753C 2153.27,2747.07 2135.61,2743.41 2117.5,2742C 2050.17,2741.5 1982.83,2741.33 1915.5,2741.5C 1914.95,2739.1 1914.12,2736.77 1913,2734.5C 1870.56,2663.94 1828.39,2593.27 1786.5,2522.5C 1896.83,2522.67 2007.17,2522.5 2117.5,2522C 2136.5,2521.05 2154,2515.55 2170,2505.5C 2174.66,2502.33 2179.16,2499 2183.5,2495.5 Z"/></g>
<g><path style="opacity:1" fill="#ffc0a1" d="M 2546.5,2475.5 C 2546.83,2475.5 2547.17,2475.5 2547.5,2475.5C 2547.96,2485.16 2548.29,2494.83 2548.5,2504.5C 2548.17,2504.5 2547.83,2504.5 2547.5,2504.5C 2546.91,2494.84 2546.57,2485.18 2546.5,2475.5 Z"/></g>
<g><path style="opacity:1" fill="#ff8a50" d="M 2434.5,2498.5 C 2433.77,2507.82 2433.43,2517.15 2433.5,2526.5C 2433.17,2526.5 2432.83,2526.5 2432.5,2526.5C 2432.06,2516.93 2432.73,2507.6 2434.5,2498.5 Z"/></g>
<g><path style="opacity:0.986" fill="#ff721d" d="M 1786.5,2522.5 C 1828.39,2593.27 1870.56,2663.94 1913,2734.5C 1914.12,2736.77 1914.95,2739.1 1915.5,2741.5C 1828.32,2741.82 1741.15,2741.49 1654,2740.5C 1621.48,2734.48 1595.82,2718.15 1577,2691.5C 1572,2682.83 1567.66,2673.83 1564,2664.5C 1551.87,2618.16 1563.37,2579 1598.5,2547C 1614.3,2534.39 1632.3,2526.39 1652.5,2523C 1697.17,2522.5 1741.83,2522.33 1786.5,2522.5 Z"/></g>
<g><path style="opacity:1" fill="#ffd9c6" d="M 2547.5,2504.5 C 2547.83,2504.5 2548.17,2504.5 2548.5,2504.5C 2549,2513.83 2549.33,2523.16 2549.5,2532.5C 2547.73,2523.4 2547.06,2514.07 2547.5,2504.5 Z"/></g>
<g><path style="opacity:1" fill="#ffb28a" d="M 2432.5,2526.5 C 2432.83,2526.5 2433.17,2526.5 2433.5,2526.5C 2433.15,2542.19 2432.49,2557.85 2431.5,2573.5C 2431.17,2573.5 2430.83,2573.5 2430.5,2573.5C 2430.85,2557.81 2431.51,2542.15 2432.5,2526.5 Z"/></g>
<g><path style="opacity:1" fill="#ff8d53" d="M 2549.5,2534.5 C 2550.31,2536.29 2550.81,2538.29 2551,2540.5C 2551.6,2555.83 2552.1,2571.17 2552.5,2586.5C 2551.83,2580.83 2551.17,2575.17 2550.5,2569.5C 2550.64,2557.82 2550.3,2546.15 2549.5,2534.5 Z"/></g>
<g><path style="opacity:1" fill="#ffc9ae" d="M 2430.5,2573.5 C 2430.83,2573.5 2431.17,2573.5 2431.5,2573.5C 2431.4,2582.84 2431.07,2592.18 2430.5,2601.5C 2430.17,2601.5 2429.83,2601.5 2429.5,2601.5C 2429.67,2592.16 2430,2582.83 2430.5,2573.5 Z"/></g>
<g><path style="opacity:1" fill="#ffcfb7" d="M 2550.5,2569.5 C 2551.17,2575.17 2551.83,2580.83 2552.5,2586.5C 2553.52,2599.2 2553.52,2611.87 2552.5,2624.5C 2552.17,2624.5 2551.83,2624.5 2551.5,2624.5C 2551.51,2606.16 2551.18,2587.83 2550.5,2569.5 Z"/></g>
<g><path style="opacity:1" fill="#ffe3d4" d="M 2429.5,2601.5 C 2429.83,2601.5 2430.17,2601.5 2430.5,2601.5C 2430.46,2610.18 2430.8,2618.85 2431.5,2627.5C 2431.17,2627.5 2430.83,2627.5 2430.5,2627.5C 2429.59,2618.87 2429.26,2610.21 2429.5,2601.5 Z"/></g>
<g><path style="opacity:1" fill="#ffab80" d="M 2551.5,2624.5 C 2551.83,2624.5 2552.17,2624.5 2552.5,2624.5C 2552.74,2626.9 2552.07,2628.9 2550.5,2630.5C 2550.52,2628.44 2550.85,2626.44 2551.5,2624.5 Z"/></g>
<g><path style="opacity:1" fill="#ff965f" d="M 2430.5,2627.5 C 2430.83,2627.5 2431.17,2627.5 2431.5,2627.5C 2432.46,2630.43 2433.13,2633.43 2433.5,2636.5C 2431.53,2633.92 2430.53,2630.92 2430.5,2627.5 Z"/></g>
<g><path style="opacity:1" fill="#ff925b" d="M 2543.5,2647.5 C 2542.86,2649.79 2541.53,2651.46 2539.5,2652.5C 2540.12,2650.25 2541.46,2648.58 2543.5,2647.5 Z"/></g>
<g><path style="opacity:1" fill="#fb8556" d="M 2871.5,2646.5 C 2871.83,2646.5 2872.17,2646.5 2872.5,2646.5C 2872.74,2648.9 2872.07,2650.9 2870.5,2652.5C 2870.52,2650.44 2870.85,2648.44 2871.5,2646.5 Z"/></g>
<g><path style="opacity:1" fill="#ff915c" d="M 2807.5,2645.5 C 2808.37,2648 2809.04,2650.67 2809.5,2653.5C 2807.63,2651.36 2806.96,2648.7 2807.5,2645.5 Z"/></g>
<g><path style="opacity:1" fill="#fd946a" d="M 2926.5,2650.5 C 2928.07,2652.1 2928.74,2654.1 2928.5,2656.5C 2926.93,2654.9 2926.26,2652.9 2926.5,2650.5 Z"/></g>
<g><path style="opacity:1" fill="#ffbb98" d="M 2689.5,2648.5 C 2691.24,2650.39 2692.24,2652.73 2692.5,2655.5C 2690.76,2653.61 2689.76,2651.27 2689.5,2648.5 Z"/></g>
<g><path style="opacity:1" fill="#fca37f" d="M 2868.5,2656.5 C 2868.57,2658.03 2867.91,2659.03 2866.5,2659.5C 2866.43,2657.97 2867.09,2656.97 2868.5,2656.5 Z"/></g>
<g><path style="opacity:1" fill="#ff9d6d" d="M 2737.5,2669.5 C 2734.45,2672.19 2730.79,2673.52 2726.5,2673.5C 2726.5,2673.17 2726.5,2672.83 2726.5,2672.5C 2730.22,2671.7 2733.89,2670.7 2737.5,2669.5 Z"/></g>
<g><path style="opacity:1" fill="#ffcdb3" d="M 2467.5,2670.5 C 2469.8,2671.06 2472.13,2671.56 2474.5,2672C 2475.06,2672.38 2475.39,2672.88 2475.5,2673.5C 2472.28,2673.65 2469.62,2672.65 2467.5,2670.5 Z"/></g>
<g><path style="opacity:1" fill="#ffd7c3" d="M 2708.5,2670.5 C 2714.38,2672.07 2720.38,2672.73 2726.5,2672.5C 2726.5,2672.83 2726.5,2673.17 2726.5,2673.5C 2721.49,2673.67 2716.49,2673.5 2711.5,2673C 2710.06,2672.62 2709.06,2671.79 2708.5,2670.5 Z"/></g>
<g><path style="opacity:1" fill="#ffc7b1" d="M 2826.5,2670.5 C 2834.75,2672.68 2843.08,2673.02 2851.5,2671.5C 2850.74,2672.27 2849.74,2672.77 2848.5,2673C 2842.17,2673.67 2835.83,2673.67 2829.5,2673C 2828.06,2672.62 2827.06,2671.79 2826.5,2670.5 Z"/></g>
<g><path style="opacity:1" fill="#fecfbd" d="M 2944.5,2670.5 C 2950.71,2672.1 2957.05,2672.77 2963.5,2672.5C 2958.68,2673.65 2953.68,2673.82 2948.5,2673C 2946.68,2672.8 2945.35,2671.97 2944.5,2670.5 Z"/></g>
<g><path style="opacity:1" fill="#ffd9c5" d="M 2475.5,2673.5 C 2485.84,2674.79 2496.17,2674.79 2506.5,2673.5C 2501.41,2674.97 2496.08,2675.63 2490.5,2675.5C 2485.24,2675.67 2480.24,2675 2475.5,2673.5 Z"/></g>
<g><path style="opacity:0.997" fill="#f95a15" d="M 2775.5,2673.5 C 2775.2,2674.15 2774.86,2674.82 2774.5,2675.5C 2811.78,2738.55 2849.44,2801.38 2887.5,2864C 2892.62,2862.19 2897.95,2860.52 2903.5,2859C 2916.95,2853.11 2930.29,2846.94 2943.5,2840.5C 2944.18,2840.86 2944.85,2841.2 2945.5,2841.5C 2914.46,2856.91 2882.29,2869.91 2849,2880.5C 2733.39,2915.73 2615.89,2922.23 2496.5,2900C 2494.29,2898.86 2491.96,2898.02 2489.5,2897.5C 2489.21,2896.35 2488.38,2895.68 2487,2895.5C 2461.78,2890.1 2436.61,2883.27 2411.5,2875C 2396.78,2851.05 2382.44,2826.89 2368.5,2802.5C 2449.8,2787.9 2529.8,2768.07 2608.5,2743C 2622.08,2737.54 2635.74,2732.21 2649.5,2727C 2680.99,2715.84 2711.66,2702.84 2741.5,2688C 2752.19,2684.82 2762.19,2680.32 2771.5,2674.5C 2772.83,2674.17 2774.17,2673.83 2775.5,2673.5 Z"/></g>
<g><path style="opacity:0.979" fill="#f95e17" d="M 2368.5,2802.5 C 2382.44,2826.89 2396.78,2851.05 2411.5,2875C 2436.61,2883.27 2461.78,2890.1 2487,2895.5C 2488.38,2895.68 2489.21,2896.35 2489.5,2897.5C 2413.21,2882.95 2341.87,2855.95 2275.5,2816.5C 2278.71,2814.65 2282.37,2813.48 2286.5,2813C 2306.06,2809.71 2325.72,2807.21 2345.5,2805.5C 2353.15,2804.41 2360.82,2803.41 2368.5,2802.5 Z"/></g>
</svg>
