<svg xmlns="http://www.w3.org/2000/svg" viewBox="0 0 64 64" id="online-food-order"><rect width="16" height="3" x="10" y="24" rx="1"></rect><path d="M26 28.816A2.966 2.966 0 0 1 25 29H11a2.966 2.966 0 0 1-1-.184V31h16zM47 58H17a1 1 0 0 0-1 1v1h32v-1a1 1 0 0 0-1-1zM25 22h1v-1a4 4 0 0 0-4-4h-8a4 4 0 0 0-4 4v1h15zM7.867 38h20.266l.714-5H7.153l.714 5zM28.82 48l-1.6 8h9.56l-1.6-8h-6.36z"></path><path d="M28 22a1.983 1.983 0 0 1-.513 1.324A2.982 2.982 0 0 1 28 25v1a2.982 2.982 0 0 1-.513 1.676A1.983 1.983 0 0 1 28 29v2h2a1 1 0 0 1 .99 1.142L30.153 38H34.1l1.789-17H28zm3-9a1 1 0 0 1 .293-.707l2.414-2.414a1 1 0 0 0 0-1.415l-.171-.171a1 1 0 0 0-1.415 0L29 11.414V15h2zM6 46h52a3 3 0 0 0 2.816-2H3.184A3 3 0 0 0 6 46zm21.65-27H38v-2H26.46a6.009 6.009 0 0 1 1.19 2zM44 28h2.569l-.525-1.706a1 1 0 0 1 1.435-1.171L52.755 28H57v-5H44z"></path><path d="M58 4H6a3 3 0 0 0-3 3v35h58V7a3 3 0 0 0-3-3ZM44 6h10v2H44Zm-4 14a1 1 0 0 1-1 1h-1.1l-1.905 18.1A1 1 0 0 1 35 40H7a1 1 0 0 1-.99-.858l-1-7A1 1 0 0 1 6 31h2v-2a1.983 1.983 0 0 1 .513-1.324A2.982 2.982 0 0 1 8 26v-1a2.982 2.982 0 0 1 .513-1.676A1.983 1.983 0 0 1 8 22v-1a6.006 6.006 0 0 1 6-6h13v-4a1 1 0 0 1 .293-.707l3.414-3.414a3 3 0 0 1 4.243 0l.171.171a3 3 0 0 1 0 4.243L33 13.414V15h6a1 1 0 0 1 1 1Zm19 9a1 1 0 0 1-1 1h-1.578l2.057 1.122a1 1 0 0 1-.279 1.858l-4.431.887-1.816 5.449A1 1 0 0 1 51 40h-.012a1 1 0 0 1-.944-.706L47.185 30H43a1 1 0 0 1-1-1v-7a1 1 0 0 1 1-1h15a1 1 0 0 1 1 1Zm0-13H44v-2h15Zm0-4H44v-2h15Z"></path><path d="m51.038 35.724 1.013-3.04a1 1 0 0 1 .753-.664l2.3-.46-6.426-3.5Z"></path></svg>