<svg xmlns="http://www.w3.org/2000/svg" viewBox="0 0 64 64" id="online-food-order"><path d="M27.64 38.769a1 1 0 0 1-1.347-.062l-2-2 1.414-1.414 1.355 1.354 2.848-2.374a4.092 4.092 0 1 0 .97 1.8zM43 52V47H11v5a1 1 0 0 0 1 1H42A1 1 0 0 0 43 52zM29 51H25V49h4zM27 11a7.008 7.008 0 0 0-7 7H34A7.008 7.008 0 0 0 27 11z"></path><path d="M38,40a1,1,0,0,0-1,1v3a1,1,0,0,0,1,1h6a1,1,0,0,1,1,1v6a3.009,3.009,0,0,1-3,3H26v7H47V58a1.033,1.033,0,0,1,.29-.71L52,52.59V40Z"></path><path d="M35,44V41a3.009,3.009,0,0,1,3-3h5V5a1,1,0,0,0-1-1H12a1,1,0,0,0-1,1V45H35.18A3,3,0,0,1,35,44Zm2-15H21V27H37Zm0-4H24V23H37ZM17,18h1a9.016,9.016,0,0,1,8-8.94V8H25a1,1,0,0,1,0-2h4a1,1,0,0,1,0,2H28V9.06A9.016,9.016,0,0,1,36,18h1v2H17Zm0,5h4v2H17Zm2,6H17V27h2Zm14,8a6.024,6.024,0,1,1-1.55-4.01l.91-.759,1.28,1.538-1.1.92A5.97,5.97,0,0,1,33,37Z"></path></svg>