<svg xmlns="http://www.w3.org/2000/svg" width="64" height="64" viewBox="0 0 16.933 16.933" id="online-order"><path fill="#a8c5f7" d="m 3.439575,0.793748 c -0.87947,0 -1.5875,0.70802 -1.5875,1.5875 v 3.81889 1.73736 c 0,-0.43974 0.35402,-0.79375 0.79375,-0.79375 0.43974,0 0.79375,0.35401 0.79375,0.79375 v 1.50947 c 0,0.12256 1.05834,1.125 1.05834,1.526 v 1.19786 h 1.78645 0.85938 c 0.87947,0 1.5875,-0.70802 1.5875,-1.5875 v -8.20208 c 0,-0.87948 -0.70803,-1.5875 -1.5875,-1.5875 z"></path><path fill="#91b8fb" d="m 6.614575,0.793748 c 0.87947,0 1.5875,0.70802 1.5875,1.5875 v 8.20208 c 0,0.87948 -0.70803,1.5875 -1.5875,1.5875 h 0.52917 c 0.87947,0 1.5875,-0.70802 1.5875,-1.5875 v -8.20208 c 0,-0.87948 -0.70803,-1.5875 -1.5875,-1.5875 z"></path><path fill="#e2e7fa" d="m 3.439575,1.852078 c -0.29315,0 -0.52916,0.23601 -0.52916,0.52917 v 4.81056 c 0.30815,0.10889 0.52916,0.39933 0.52916,0.74569 v 1.50947 c 0,0.12256 1.05834,1.125 1.05834,1.526 v 0.13953 h 2.64583 c 0.29316,0 0.52917,-0.23601 0.52917,-0.52917 v -8.20208 c 0,-0.29316 -0.23601,-0.52917 -0.52917,-0.52917 h -0.79375 l -0.27802,0.26459 h -1.59318 l -0.24547,-0.26459 z"></path><path fill="#c4d2f0" d="M5.027075 10.972968c0-.65422-1.05833-1.58999-1.05833-1.71255v-1.32292c0-.43974-.35401-.79375-.79375-.79375-.0934 0-.18151.0187-.26458.0481.30815.10889.52916.39933.52916.74569v1.50947c0 .12256 1.05834 1.125 1.05834 1.526zM5.556245 2.381248c-.29316 0-.52917.23601-.52917.52917v3.43958c0 .29316.23601.52917.52917.52917h.52917c.12398.66916-.26459 1.17545-.52917 1.5875.90028-.0542 1.58812-.21023 2.11667-1.06919v-5.01623z"></path><path fill="#c4d2f0" d="m 3.439575,7.720978 v -4.81056 c 0,-0.29316 0.23602,-0.52917 0.52917,-0.52917 h 0.27781 l 0.24547,0.26458 h 1.59318 l 0.27802,-0.26458 h 1.30969 c 0,-0.29316 -0.23601,-0.52917 -0.52917,-0.52917 h -0.79375 l -0.27802,0.26459 h -1.59318 l -0.24547,-0.26459 h -0.79375 c -0.29315,0 -0.52916,0.23601 -0.52916,0.52917 v 4.81056 z"></path><path fill="#a8c5f7" d="m 1.852075,13.758335 h 3.704189 c 0.293152,0 0.529156,0.236004 0.529156,0.529156 v 1.322938 c 0,0.293152 -0.236004,0.529156 -0.529156,0.529156 H 1.852075 c -0.293152,0 -0.529156,-0.236004 -0.529156,-0.529156 v -1.322938 c 0,-0.293152 0.236004,-0.529156 0.529156,-0.529156 z"></path><path fill="#f8f8f8" d="m 2.381245,13.758328 c -0.29315,0 -0.52917,0.23602 -0.52917,0.52917 v 1.32292 c 0,0.29315 0.23602,0.52916 0.52917,0.52916 h -0.52917 c -0.29315,0 -0.52916,-0.23601 -0.52916,-0.52916 v -1.32292 c 0,-0.29315 0.23601,-0.52917 0.52916,-0.52917 z"></path><path fill="#91b8fb" d="M5.027075 13.758328c.29316 0 .52917.23602.52917.52917v1.32292c0 .29315-.23601.52916-.52917.52916h.52917c.29315 0 .52917-.23601.52917-.52916v-1.32292c0-.29315-.23602-.52917-.52917-.52917zM4.497915 11.112498h.52916v1.05833h-.52916z"></path><path fill="#e2e7fa" d="m 1.841745,6.200138 c -0.81791,0.16447 -1.048,0.88289 -1.048,1.38183 v 2.25102 c 0,0.7503 0.79375,2.33785 0.79375,2.86701 v 1.05833 h 4.01578 c 0,-0.392 0.49886,-0.85932 0.68109,-1.5875 h -1.78645 v -1.19786 c 0,-0.401 -1.05834,-1.40344 -1.05834,-1.526 v -1.50947 c 0,-0.43974 -0.35401,-0.79375 -0.79375,-0.79375 -0.43973,0 -0.79375,0.35401 -0.79375,0.79375 v -1.73736 z"></path><path fill="#f8f8f8" d="m 1.841745,6.200138 c -0.81791,0.16447 -1.048,0.88289 -1.048,1.38183 v 2.25102 c 0,0.7503 0.79375,2.33785 0.79375,2.86701 v 1.05833 h 0.52917 v -1.05833 c 0,-0.52916 -0.79375,-2.11671 -0.79375,-2.86701 v -2.25102 c 0,-0.37107 0.12749,-0.8634 0.52916,-1.15911 v -0.22272 z"></path><path fill="#c4d2f0" d="m 2.381245,7.191848 c 0.30816,0.10889 0.52917,0.39933 0.52917,0.74569 v 1.64899 c 0,0.12256 1.05833,1.12501 1.05833,1.52601 v 1.05833 c 0,0.14658 0.118,0.26459 0.26458,0.26459 0.14658,0 0.26459,-0.11801 0.26459,-0.26459 v -1.19786 c 0,-0.401 -1.05834,-1.40344 -1.05834,-1.526 v -1.50947 c 0,-0.43974 -0.35401,-0.79375 -0.79375,-0.79377 -0.0934,-2e-5 -0.1815,0.01868 -0.26458,0.04808 z"></path><path fill="#f8f8f8" d="m 1.852075,7.937498 v 1.5875 c 0,0.14658 0.11801,0.26458 0.26459,0.26458 0.14658,0 0.26458,-0.118 0.26458,-0.26458 v -1.5875 c 0,-0.34636 0.22101,-0.6368 0.52917,-0.74569 -0.0831,-0.0294 -0.17121,-0.0481 -0.26459,-0.04808 -0.43973,2e-5 -0.79375,0.35403 -0.79375,0.79377 z"></path><path fill="#f8f8f8" d="m 3.439575,0.793748 c -0.87947,0 -1.5875,0.70802 -1.5875,1.5875 0,1.8520833 0,3.7041667 0,5.55625 0,-0.34636 0.22101,-0.6368 0.52917,-0.74569 0,-1.60352 0,-3.20704 0,-4.81056 0,-0.87948 0.70803,-1.5875 1.5875,-1.5875 z"></path><path fill="#c4d2f0" d="m 5.755195,12.170828 c -0.18222,0.72818 -0.68109,1.1955 -0.68109,1.5875 h 0.52917 c 0,-0.392 0.49886,-0.85932 0.68109,-1.5875 z"></path><path fill="#e2e7fa" d="m 15.610415,1.852078 c 0.29315,0 0.52916,0.23601 0.52916,0.52917 v 3.43958 c 0,0.29316 -0.23601,0.52917 -0.52916,0.52917 h -7.67292 c -0.55715,1.32292 -1.32292,1.52381 -2.38125,1.5875 0.26458,-0.41205 0.65315,-0.91834 0.52917,-1.5875 h -0.52917 c -0.29316,0 -0.52917,-0.23601 -0.52917,-0.52917 v -3.43958 c 0,-0.29316 0.23601,-0.52917 0.52917,-0.52917 z"></path><path fill="#ff9751" d="m 7.672845,4.762498 c 0,-0.5845 0.47383,-1.05834 1.05833,-1.05834 0.5845,0 1.05834,0.47384 1.05834,1.05834 z"></path><path fill="#c4d2f0" d="m 15.081245,1.852078 c 0.29316,0 0.52917,0.23601 0.52917,0.52917 v 3.43958 c 0,0.29316 -0.23601,0.52917 -0.52917,0.52917 h 0.52917 c 0.29315,0 0.52916,-0.23601 0.52916,-0.52917 v -3.43958 c 0,-0.29316 -0.23601,-0.52917 -0.52916,-0.52917 z"></path><path fill="#a8c5f7" d="m 7.672845,4.762498 c 0,-0.5845 0.47383,-1.05834 1.05833,-1.05834 0.5845,0 1.05833,0.47384 1.05833,1.05834 z"></path><path fill="#91b8fb" d="m 8.466665,3.741868 c 0.45568,0.11802 0.79375,0.52803 0.79375,1.02061 h 0.52916 c 0,-0.5845 -0.47383,-1.05833 -1.05833,-1.05832 -0.0919,1e-5 -0.17955,0.01571 -0.26458,0.03771 z"></path><path fill="#f8f8f8" d="m 8.995825,3.741868 c -0.45568,0.11802 -0.79375,0.52802 -0.79375,1.02061 h -0.52916 c 0,-0.5845 0.47383,-1.05833 1.05833,-1.05832 0.0919,1e-5 0.17955,0.01571 0.26458,0.03771 z"></path><path fill="#a8c5f7" d="m 11.377015,4.762498 c 0,-0.5845 0.47383,-1.05834 1.05833,-1.05834 0.5845,0 1.05833,0.47384 1.05833,1.05834 z"></path><path fill="#c4d2f0" d="m 7.290375,6.347978 c -0.43499,0.90679 -0.99005,1.41581 -1.69434,1.52802 -0.0129,0.0198 -0.0274,0.0422 -0.0398,0.0615 1.05833,-0.0637 2.02678,-0.52917 2.38125,-1.85208 -0.26458,0 -0.52786,0 -0.64712,0.26256 z"></path><path fill="#f8f8f8" d="m 6.085415,1.852078 c -0.29316,0 -0.52917,0.23601 -0.52917,0.52917 v 3.43958 c 0,0.29316 0.23601,0.52917 0.52917,0.52917 h -0.52917 c -0.29316,0 -0.52917,-0.23601 -0.52917,-0.52917 v -3.43958 c 0,-0.29316 0.23601,-0.52917 0.52917,-0.52917 z"></path><path fill="#91b8fb" d="m 12.170825,3.741868 c 0.45569,0.11802 0.79375,0.52802 0.79375,1.02061 h 0.52917 c 0,-0.5845 -0.47383,-1.05833 -1.05833,-1.05832 -0.0919,1e-5 -0.17956,0.01571 -0.26459,0.03771 z"></path><path fill="#f8f8f8" d="m 12.699995,3.741868 c -0.45568,0.11802 -0.79375,0.52802 -0.79375,1.02061 h -0.52917 c 0,-0.5845 0.47384,-1.05833 1.05834,-1.05832 0.0919,1e-5 0.17955,0.01571 0.26458,0.03771 z"></path><path fill="#e2e7fa" d="m 12.435415,5.820828 c -0.29316,0 -0.52917,0.23601 -0.52917,0.52917 v 2.91042 c 0,-0.29316 -0.23601,-0.52917 -0.52917,-0.52917 -0.29315,0 -0.52916,0.23601 -0.52916,0.52917 v 2.03398 c 0,1.4056 0.79375,1.86441 0.79375,2.46393 h 4.21989 c 0,-0.26458 0.27802,-0.52916 0.27802,-1.5875 v -2.38125 c 0,-0.29316 -0.236,-0.52916 -0.52916,-0.52916 -0.29316,0 -0.52917,0.236 -0.52917,0.52916 v -0.52916 c 0,-0.29316 -0.23601,-0.52917 -0.52917,-0.52917 -0.29315,0 -0.52916,0.23601 -0.52916,0.52917 v -0.26459 c 0,-0.29316 -0.23601,-0.52916 -0.52917,-0.52916 -0.29316,0 -0.52917,0.236 -0.52917,0.52916 v -2.64583 c 0,-0.29316 -0.236,-0.52917 -0.52916,-0.52917 z"></path><path fill="#a8c5f7" d="m 11.906244,13.758335 h 3.704188 c 0.293153,0 0.529156,0.236004 0.529156,0.529156 v 1.322938 c 0,0.293152 -0.236003,0.529156 -0.529156,0.529156 h -3.704188 c -0.293153,0 -0.529156,-0.236004 -0.529156,-0.529156 v -1.322938 c 0,-0.293152 0.236003,-0.529156 0.529156,-0.529156 z"></path><path fill="#f8f8f8" d="m 12.435415,13.758328 c -0.29316,0 -0.52917,0.23602 -0.52917,0.52917 v 1.32292 c 0,0.29315 0.23601,0.52916 0.52917,0.52916 h -0.52917 c -0.29315,0 -0.52917,-0.23601 -0.52917,-0.52916 v -1.32292 c 0,-0.29315 0.23602,-0.52917 0.52917,-0.52917 z"></path><path fill="#91b8fb" d="m 15.081245,13.758328 c 0.29315,0 0.52917,0.23602 0.52917,0.52917 v 1.32292 c 0,0.29315 -0.23602,0.52916 -0.52917,0.52916 h 0.52917 c 0.29315,0 0.52916,-0.23601 0.52916,-0.52916 v -1.32292 c 0,-0.29315 -0.23601,-0.52917 -0.52916,-0.52917 z"></path><path fill="#c4d2f0" d="M12.170825 5.893728c.15764.0914.26459.26022.26459.4563v3.70417c0 .14658.118.26458.26458.26458.14658 0 .26458-.118.26458-.26458v-3.70417c0-.29316-.236-.52917-.52916-.529185-.0971-.000015-.18653.027585-.26459.072885zM13.229165 8.539918c.15763.0914.26458.26022.26458.4563v1.05798c0 .14658.118.26458.26458.26458.14658 0 .26459-.118.26459-.26458v-1.05798c0-.29316-.23601-.52917-.52917-.529185-.0971-.000015-.18653.027585-.26458.072885zM14.287495 8.804148c.15764.0914.26458.26023.26458.45631v.79375c0 .14658.11801.26458.26459.26458.14658 0 .26458-.118.26458-.26458v-.79375c0-.29316-.23601-.52917-.52917-.52919-.0971-.00002-.18653.02758-.26458.07288zM15.345825 9.333318c.15764.0914.26459.26023.26459.4563v2.38125c0 1.05834-.27802 1.32292-.27802 1.5875h.52916c0-.26458.27802-.52916.27802-1.5875v-2.38125c0-.29316-.236-.52916-.52916-.52918-.0971-.00002-.18653.02758-.26459.07288z"></path><path fill="#f8f8f8" d="m 10.847915,9.260418 v 2.03398 c 0,1.4056 0.79375,1.86441 0.79375,2.46393 h 0.52916 c 0,-0.59952 -0.79375,-1.05833 -0.79375,-2.46393 v -2.03398 c 0,-0.19608 0.10695,-0.36488 0.26459,-0.45631 -0.0781,-0.0453 -0.1675,-0.0729 -0.26459,-0.07288 -0.29315,2e-5 -0.52916,0.23603 -0.52916,0.52919 z"></path><path fill="#66a0fe" d="M 3.4390669,0.52916697 C 2.411347,0.52916697 1.586987,1.359247 1.586987,2.380727 V 5.9944568 C 1.1996969,6.1219871 0.948897,6.359717 0.784967,6.629047 c -0.19236,0.3160501 -0.2558,0.66274 -0.2558,0.9529098 v 2.2520597 c 0,0.4319095 0.2125,1.0441095 0.41187,1.6035195 0.0997,0.27971 0.19806,0.55086 0.26975,0.77722 0.0717,0.22635 0.1111,0.39119 0.1111,0.48421 v 0.99683 c -0.16766,0.15196 -0.26355,0.35949 -0.26355,0.59118 v 1.32447 c 0,0.44239 0.35754,0.79272 0.79272,0.79272 h 3.7051998 c 0.4424802,0 0.7932301,-0.35757 0.7932301,-0.79272 v -1.32447 c 0,-0.30302 -0.16809,-0.57122 -0.43356,-0.70745 0.0591,-0.1343 0.1666701,-0.31139 0.2930001,-0.54053 0.15366,-0.28411 0.2314401,-0.47614 0.2723399,-0.6041 h 0.6624899 c 1.0277202,0 1.8520801,-0.83009 1.8520801,-1.85157 V 6.6145769 l 2.6458301,-5.101e-4 v 1.8970403 c -0.0829,-0.0293 -0.17093,-0.045 -0.26458,-0.045 -0.44343,0 -0.79375,0.3580598 -0.79375,0.7932298 -3.97e-4,0.6785796 5.29e-4,1.3566691 5.29e-4,2.0350191 0,0.7526 0.21227,1.27929 0.42581,1.69137 0.15029,0.28578 0.30648,0.5367 0.35192,0.72399 -0.1546,0.14181 -0.24909,0.3519 -0.24909,0.57671 v 1.32446 c 0,0.43516 0.35032,0.79272 0.79271,0.79272 h 3.70624 c 0.44239,0 0.79271,-0.35756 0.79271,-0.79272 v -1.32446 c 0,-0.23244 -0.0988,-0.44245 -0.26665,-0.59428 0.0159,-0.0667 0.0564,-0.15538 0.11628,-0.35502 0.0754,-0.25144 0.15037,-0.61557 0.15037,-1.16789 V 9.7890265 c -1.4e-4,-0.4351795 -0.35031,-0.7932396 -0.79375,-0.7932396 -0.10491,0 -0.20192,0.018399 -0.293,0.0548 -0.0904,-0.3361899 -0.39473,-0.5844601 -0.76533,-0.5844601 -0.1427,0 -0.2748,0.037 -0.38964,0.1018001 -0.13982,-0.22102 -0.38385,-0.36638 -0.66869,-0.36638 -0.0936,0 -0.18166,0.0157 -0.26459,0.045 V 6.614097 h 2.38229 c 0.44247,-4e-5 0.79271,-0.35911 0.79271,-0.7942702 V 2.380247 c 0,-0.43517 -0.35238,-0.79326 -0.79271,-0.79324 L 8.8191061,1.5875282 C 8.522927,0.962627 7.8876868,0.52918697 7.1437568,0.52918697 Z M 7.1437568,1.058847 c 0.43293,0 0.8136401,0.20081 1.0598801,0.52865 H 5.556767 c -0.2376699,1e-5 -0.44913,0.10355 -0.5937599,0.26458 H 4.5940369 l -0.16588,-0.18035 c -0.0501,-0.0534 -0.1200399,-0.0843 -0.1932699,-0.0842 H 3.4390669 c -0.4351799,0 -0.7937499,0.3493 -0.7937499,0.79323 v 4.4979199 c -0.19329,0 -0.37267,0.0505 -0.52916,0.1421101 v -4.64003 c 0,-0.73747 0.59265,-1.32188 1.3229099,-1.321895 z m 8.4677002,1.0573 c 0.15115,-10e-6 0.26355,0.12324 0.26355,0.26407 v 3.4395799 c 0,0.1511599 -0.11963,0.2651001 -0.26355,0.2651001 h -2.43035 c -0.10842,-0.30637 -0.39688,-0.5291701 -0.74569,-0.5291701 -0.3488,0 -0.6373,0.2228001 -0.74569,0.5291701 H 7.9375071 C 7.8308969,6.0848171 7.734887,6.1493968 7.6935869,6.2476768 7.429987,6.8735868 7.134027,7.1979768 6.797527,7.3892071 6.6071869,7.4973769 6.379107,7.5714068 6.0693969,7.6207169 6.2846169,7.2557571 6.4397469,6.809137 6.3458669,6.302457 6.3228667,6.1770371 6.213457,6.0851269 6.0859371,6.084897 H 5.556767 c -0.1449502,0 -0.2650699,-0.1139402 -0.2651001,-0.2651001 L 5.2911377,2.380217 c -2.01e-5,-0.15116 0.1144699,-0.26355 0.26562,-0.26355 z m -11.4918101,5.106e-4 0.16588,0.18036 c 0.0506,0.054 0.12138,0.0848 0.19534,0.0842 h 0.2806002 l 0.00101,3.43855 c 8.01e-5,0.4413599 0.3580701,0.79737 0.7942601,0.7942698 H 5.845097 c -0.006,0.4519301 -0.2787798,0.8184999 -0.51108,1.1802901 -0.1157798,0.1819199 0.0229,0.4184298 0.23823,0.4061698 0.54199,-0.0326 1.0437501,-0.0996 1.49396,-0.3555298 0.1205802,-0.0686 0.2341102,-0.1484101 0.3421002,-0.2428801 v 2.9812086 c 0,0.142391 -0.1134102,0.264071 -0.2645802,0.264071 H 4.7474769 c -0.0278,-0.167781 -0.21009,-0.447321 -0.2754299,-0.529171 -0.0927,-0.12946 -0.19671,-0.25925 -0.3002401,-0.3829195 -0.1353598,-0.1617 -0.26963,-0.3119495 -0.36536,-0.4252996 -0.0463,-0.0548 -0.0807,-0.0997 -0.1023199,-0.12919 l -5.292e-4,-1.44332 C 3.7039153,7.476197 3.4196877,7.1568069 3.1744277,7.020207 v -4.63951 c 0,-0.14238 0.11341,-0.26406 0.26459,-0.26407 z m 4.3470199,1.3224093 v 0.0264 c -0.51641,0.1050899 -0.9262998,0.51055 -1.0314598,1.03198 h -0.0269 c -0.3528697,0 -0.3528697,0.5291699 0,0.5291699 0.9095059,0 1.8616215,0 2.64583,0 0.35287,0 0.35287,-0.5291699 0,-0.5291699 h -0.0269 C 9.922077,3.9760169 9.512187,3.570547 8.9957769,3.4654669 v -0.0264 c 0,-0.1764301 -0.1322599,-0.26459 -0.2645499,-0.26459 -0.1323,10e-8 -0.2645602,0.0882 -0.2645602,0.26459 z m 3.7036502,0 v 0.0264 c -0.51641,0.1050899 -0.9263,0.51055 -1.03146,1.03198 h -0.0269 c -0.35287,0 -0.35287,0.5291699 0,0.5291699 0.881943,0 1.763887,0 2.64583,0 0.35287,0 0.35287,-0.5291699 0,-0.5291699 h -0.0269 C 13.625727,3.976017 13.215837,3.5705471 12.699427,3.465467 v -0.0264 c 0,-0.1764301 -0.13226,-0.26459 -0.26455,-0.26459 -0.1323,0 -0.26456,0.0882 -0.26456,0.2645899 z m -6.0079,0.3415801 -0.2645802,0.26561 c -0.1025599,0.1032 -0.1025599,0.26991 0,0.3731099 L 6.162417,4.6849771 c 0.2562,0.24277 0.6158701,-0.1200002 0.3751699,-0.3751702 l -0.078,-0.077 0.078,-0.077 c 0.16686,-0.1741501 0.0431,-0.4517901 -0.18552,-0.452165 -0.0714,5.51e-5 -0.1398799,0.025905 -0.1896499,0.077005 z m 8.46667,0.37517 0.078,0.077 -0.078,0.077 c -0.2407,0.2551699 0.11845,0.6179399 0.37465,0.3751699 l 0.2651,-0.26561 c 0.10256,-0.1031999 0.10256,-0.2699099 0,-0.3731098 l -0.2651,-0.2656102 c -0.0498,-0.0512 -0.11777,-0.077 -0.18913,-0.077005 -0.22864,3.655e-4 -0.35238,0.2780151 -0.18552,0.4521651 z M 8.7312571,3.9677171 c 0.2927699,0 0.6182598,0.1717098 0.7482699,0.5291597 H 7.982977 C 8.112997,4.1394269 8.4384869,3.9677171 8.7312571,3.9677171 Z m 3.7036499,0 c 0.29277,0 0.61826,0.1717098 0.74827,0.5291597 h -1.49655 c 0.13002,-0.3574499 0.45551,-0.5291597 0.74828,-0.5291597 z m 0.2651,2.3812499 v 3.704679 c 0,0.14658 0.118,0.26458 0.26458,0.26458 0.14658,0 0.26458,-0.118 0.26458,-0.26458 V 8.9947969 c 0,-0.1511599 0.12067,-0.2640701 0.26459,-0.2640701 0.14392,0 0.26462,0.1129102 0.26458,0.2640701 v 1.0588491 c 0,0.14658 0.11801,0.26458 0.26458,0.26458 0.14658,0 0.26459,-0.118 0.26459,-0.26458 V 9.259377 c 0,-0.1511601 0.12066,-0.26406 0.26458,-0.26406 0.14392,0 0.26462,0.1128999 0.26458,0.26406 v 0.794269 c 0,0.14658 0.11801,0.26458 0.26459,0.26458 0.14658,0 0.26458,-0.118 0.26458,-0.26458 V 9.7890665 c 0,-0.1511596 0.12066,-0.2640695 0.26458,-0.2640695 0.14393,0 0.26462,0.1129099 0.26459,0.2640695 v 2.3802095 c 0,0.50602 -0.0636,0.80438 -0.12713,1.01596 -0.0342,0.11395 -0.0728,0.21068 -0.10335,0.30903 -0.0112,-4.76e-4 -0.0228,-10e-4 -0.0341,-10e-4 h -3.70416 c -0.0202,0 -0.036,9e-5 -0.0558,0.002 -0.0811,-0.25448 -0.24688,-0.51533 -0.37001,-0.75292 -0.18971,-0.36611 -0.3669,-0.79447 -0.3669,-1.44747 10e-5,-0.67888 -10e-4,-1.3562885 -10e-4,-2.0350187 0,-0.1511602 0.12066,-0.26406 0.26458,-0.26406 0.14392,0 0.26462,0.1128998 0.26458,0.26406 v 1.5880187 c 0,0.14658 0.11801,0.26458 0.26459,0.26458 0.14658,0 0.26458,-0.118 0.26458,-0.26458 V 6.3494523 c 0,-0.1511599 0.12066,-0.2640701 0.264555,-0.2643127 0.143905,-2.426e-4 0.264595,0.1126673 0.264565,0.2638274 z M 1.5869858,9.5255169 c -6.01e-5,0.3531196 0.52992,0.3531196 0.52969,0 L 2.1161545,7.937497 c -2e-4,-0.2977401 0.24072,-0.5291701 0.5302,-0.5291701 0.28947,0 0.52833,0.23143 0.52813,0.5291701 l 5.213e-4,1.4934499 c -6e-5,0.0874 0.0267,0.1457801 0.0434,0.1762101 0.0519,0.0898 0.1268698,0.1738495 0.1834499,0.2444295 0.0902,0.10688 0.2340501,0.2693795 0.3632801,0.4237495 0.1292198,0.15437 0.24976,0.3067 0.3384798,0.44287 0.0996,0.14767 0.1286801,0.23784 0.1286801,0.25425 v 1.19786 c 0,0.14427 0.1188501,0.26458 0.2656099,0.26458 h 1.4190401 c -0.026101,0.0626 -0.0888,0.20012 -0.1731201,0.35036 -0.1306298,0.23695 -0.2935298,0.48894 -0.3617298,0.70901 H 1.851047 v -0.7953 c 0,-0.19113 -0.0593,-0.40084 -0.13643,-0.64441 -0.0772,-0.24357 -0.17667,-0.51768 -0.27543,-0.79478 -0.19752,-0.5542 -0.38086,-1.10445 -0.38086,-1.4257595 V 7.5819568 c 0,-0.2087599 0.0495,-0.4683498 0.1767299,-0.6774698 0.0817,-0.13422 0.1957701,-0.25321 0.3524451,-0.3374501 z m 6.5226012,-2.91098 h 0.3570798 v 3.9687491 c 0,0.73748 -0.5926499,1.32188 -1.32291,1.32189 -0.7934499,7.94e-4 -1.5880699,5.03e-4 -2.3822897,5.03e-4 v -0.52916 h 2.3822897 c 0.4351801,0 0.7937503,-0.34931 0.7937503,-0.79324 V 6.943717 c 0.0603,-0.1030301 0.1182097,-0.21146 0.1720799,-0.3291801 z m -2.21123,2.56832 0.077,0.077 H 4.7625169 c -0.35287,0 -0.35287,0.5291696 0,0.5291696 H 5.975877 l -0.0775,0.0775 c -0.24176,0.2530995 0.1179098,0.6158695 0.37517,0.3751695 l 0.5271,-0.529169 c 0.1038598,-0.10342 0.1038598,-0.27174 0,-0.3751701 l -0.5271,-0.5291601 c -0.0502,-0.0516 -0.1227801,-0.0775 -0.1886301,-0.076995 -0.2380298,8.5e-5 -0.3516901,0.2864351 -0.1865599,0.451655 z m 6.0079,4.8394991 h 3.70416 c 0.14082,0 0.26459,0.11292 0.26459,0.26407 v 1.32446 c 0,0.15115 -0.1217,0.26355 -0.26355,0.26355 h -3.70624 c -0.14184,0 -0.26355,-0.1124 -0.26355,-0.26355 v -1.32446 c 0,-0.15115 0.12377,-0.26407 0.26459,-0.26407 z m -6.3500002,5.29e-4 c 0.1428801,0 0.2635502,0.11291 0.2635502,0.26406 v 1.32447 c 0,0.14286 -0.1124,0.26355 -0.2635502,0.26355 H 1.851057 c -0.15116,-9e-6 -0.26355,-0.121709 -0.26355,-0.263559 v -1.32447 c 0,-0.14288 0.11239,-0.26356 0.26355,-0.26355 z m 6.8791602,0.793221 c -0.14612,0 -0.26458,0.11846 -0.26458,0.26458 0,0.14613 0.11846,0.26459 0.26458,0.26459 0.14613,0 0.26459,-0.11846 0.26459,-0.26459 0,-0.14612 -0.11846,-0.26458 -0.26459,-0.26458 z m -10.05468,5.29e-4 c -0.14613,0 -0.26458,0.11846 -0.26458,0.26458 0,0.14613 0.11845,0.26458 0.26458,0.26458 0.14613,0 0.26458,-0.11845 0.26458,-0.26458 0,-0.14612 -0.11845,-0.26458 -0.26458,-0.26458 z" color="#000" font-family="sans-serif" font-weight="400" overflow="visible" style="line-height:normal;font-variant-ligatures:normal;font-variant-position:normal;font-variant-caps:normal;font-variant-numeric:normal;font-variant-alternates:normal;font-feature-settings:normal;text-indent:0;text-align:start;text-decoration-line:none;text-decoration-style:solid;text-decoration-color:#000;text-transform:none;text-orientation:mixed;shape-padding:0;isolation:auto;mix-blend-mode:normal"></path></svg>